<svg width="512" height="512" viewBox="0 0 512 512" fill="none" xmlns="http://www.w3.org/2000/svg">
<path d="M109.25 15.75H114.25L122 16.25L129 17.25L136 18.75L142.75 20.75L149.25 23.25L155.25 26L160.75 29L165.5 32L169 34.5L173.5 38L176.5 40.75L178.5 42.5L183.25 47.25L185.5 50L187.5 52.25L191 57L194.25 62L197 66.75L197.5 67.5L202 64.25L208 60.5L213.75 57.5L217.25 55.75L223.75 53.25L230 51.25L236 49.75L241.75 48.75L248.25 48L252.25 47.75H259.25L268.25 48.5L275.75 49.75L283.75 51.75L290.25 54L297.75 57.25L303.5 60.25L308.75 63.5L313.75 67L314.75 67.75L315.25 66.5L317.25 62.75L322.25 55.25L324.25 52.75L326 50.5L328.25 48L330.5 45.25H331V44.75H331.5V44.25H332V43.75L334 42L336 40L341.5 35.5L346 32.25L350.75 29.25L355.25 26.75L359.25 24.75L363.75 22.75L369 20.75L376 18.75L382.75 17.25L389.75 16.25L396.75 15.75H402.25L410 16.25L417 17.25L424 18.75L430.75 20.75L437.25 23.25L443.25 26L448.75 29L454.25 32.5L459 36L462.25 38.75L464.25 40.5L466.75 42.75L471 47L472.75 49L476 53L479.5 57.75L482.75 63L485 67L487.75 72.5L491 80.75L493 87.5L494.25 93L495.5 100.5L496 106.25V118L495.5 123.25L494.5 129.75L493.25 135.5L491.75 140.75L490 146L487.25 152.5L484.5 158L480.75 164.25L478 168.25L475.5 171.5L473.5 174L471.25 176.5L468.25 179.75L465.75 182.25L463.75 184L460.25 187L455.5 190.5L451.75 193L446.75 196L441 199L433.75 202L427 204.25L420 206L412.75 207.25L408.5 207.75L404.75 208H394.75L388.5 207.5L380.75 206.25L376 205.25L376.25 207L376 239.75H392.25L395 240.25L397.25 241.75L399 243.75L400 246V250L398.5 253L349 302.5L346.5 303.75L345.5 304H342.25L339.75 303L337.25 300.75L289.5 253L288 250L287.75 249L288 245.75L289.5 242.75L291.5 241L293.75 240L295 239.75H311.75L311.5 222.5L307 225.5L301 229L294.75 232L288.5 234.5L282.25 236.5L274.75 238.25L266.75 239.5L260.75 240H251L244.75 239.5L235.75 238L229 236.25L220.75 233.5L212.5 229.75L208.25 227.5L201.75 223.5L200.5 222.5L200.25 224.25L200 247.75H216.5L219.5 248.5L221.5 250L223 251.75L224 254V258L222.5 261L173 310.5L170.5 311.75L169.5 312H166.25L163.75 311L161.25 308.75L113.5 261L112 258L111.75 255.25L112.75 252L114.5 249.75L117 248.25L119.25 247.75H135.75L135.5 205.25L128.25 206.75L120.5 207.75L117 208H106.75L100.5 207.5L93 206.25L85.5 204.5L76.75 201.5L70.5 198.75L63.75 195.25L59 192.25L54.75 189.25L51.25 186.5L47.75 183.5L46 181.75L45.5 181.5V181L44.5 180.5L42.5 178.5V178H42L40.25 176L38 173.5L36.25 171.25L33.25 167.25L30.75 163.5L27.5 158L24 151L21.25 144L19.25 137.75L17.5 130.25L16.5 123.75L16 118.75L15.75 114.5V110L16 104.5L17 96.5L18.5 89.25L20.25 83L22.25 77.25L24.5 72L27 66.75L31 60L34.25 55.25L36.25 52.75L38.5 49.75H39L39.5 48.75L43 45L44 43.75L46 42L50 38.25L54.25 35L58 32.25L64 28.5L70.75 25L75.75 22.75L82 20.5L88 18.75L94.75 17.25L101.75 16.25L109.25 15.75ZM110 32L102.75 32.5L96.25 33.5L89.25 35.25L84 37L78.75 39.25L74.75 41.25L71 43.25L65 47.25L61.5 50L58 53L52.25 58.75L50 61.5L46.75 65.75L44.25 69.5L41.25 74.75L38.25 81L36 87L34.25 93.25L33 99.25L32.25 106L32 109.75V114.5L32.5 120.75L33.5 127.25L35 133.5L36.25 137.5L38.25 143L41.75 150.25L45 155.75L48.25 160.25L50.5 163L53.5 166.5L58.5 171.5L61.25 173.75L63.75 175.75L67.25 178.25L71.25 180.75L75.75 183.25L80.5 185.5L86.5 187.75L91.25 189.25L98.5 190.75L104.25 191.5L107.5 191.75H116.5L123.75 191L130.25 189.75L135.75 188.25L140.75 186.5L146.5 184L152.75 180.75L158 177.25L162.75 173.75L164 172.75L163.75 170.5L162.25 164.75L161 158L160.25 151L160 147.25V141.25L160.5 134L161.5 127L163 120.25L164.75 114.25L166.5 109.25L169.5 102.25L172 97.5L174 94L177.5 88.75L180.5 84.75L182.5 82.25L184.75 79.75L184.5 78.25L181.5 72.5L178.75 68L175.75 63.75L173 60.5L170.75 57.75L166 53L163.25 50.75L160.25 48.25L155.25 44.75L150 41.75L146.25 39.75L139.75 37L133.5 35L127.25 33.5L120.5 32.5L112.75 32H110ZM398.25 32L391 32.5L384.75 33.5L378.25 35L371.5 37.25L365.75 39.75L362 41.75L359.25 43.25L355.25 45.75L351.5 48.5L346 53V53.5L345 54L341.5 57.5L339.75 59.5L337 62.75L334 67L331.5 70.75L328.5 76.25L327.25 78.75L327.5 80L330.75 83.75L333.75 87.75L337.25 93L339.75 97.25L342.75 103L345.25 108.75L347 113.75L348.5 118.5L350.25 126L351.5 134.75L351.75 138.25V150L351.25 155.5L350.25 162L348.75 168.75L348 171.25V172.75L351.75 175.75L355.25 178.25L359.25 180.75L363.75 183.25L369 185.75L374.25 187.75L381.25 189.75L386 190.75L394.25 191.75H406L412.25 191L418.75 189.75L425.75 187.75L432 185.25L438.25 182.25L443.75 179L448 176L450.5 174L454 171L455.5 169.75V169.25H456V168.75L457 168.25L460.5 164.5L462.75 161.75L465.25 158.5L467.75 154.75L470.75 149.5L474 142.75L476.5 135.75L478 130L479 125L479.75 119L480 115V109.25L479.5 102.75L478.5 96.25L477.25 91L475.75 86L473.25 79.75L470.25 73.5L467.75 69.25L465.75 66.25L462.75 62.25L460 59L457.75 56.5L454 52.75L451.25 50.5L447.5 47.5L443 44.5L439.25 42.25L434 39.5L428 37L422.75 35.25L416.75 33.75L411.5 32.75L406.25 32.25L401.5 32H398.25ZM253.75 64L246.75 64.5L241.5 65.25L234 67L228 69L222.75 71.25L218.75 73.25L213.75 76L209.75 78.75L205.5 82L202 85L196.5 90.5L194.25 93.25L191.25 97L188 102L185.5 106.25L182.25 113L180 119L178.25 125.25L177 131.25L176.25 138.25L176 141.75V145.75L176.5 152.5L177.5 159.25L179 165.5L180.25 169.5L182.25 175L186 182.75L189.5 188.5L193 193.25L196 196.75L198.25 199.25L202.25 203.25L207.75 207.75L211.25 210.25L215.25 212.75L220.75 215.75L225.75 218L232 220.25L238.75 222L242.25 222.75L248.25 223.5L251.5 223.75H261L267.75 223L274.25 221.75L279 220.5L285.5 218.25L291.5 215.5L296.75 212.75L302.75 208.75L306 206.25L309.25 203.5L313.25 199.75L316.5 196.25V195.75H317L320.25 191.5L322.75 188L325 184.25L327 180.75L329.25 176L331.75 169.5L333.75 162.5L335 156L335.75 149V139.25L335 132L333.75 125.5L332 119.25L329.5 112.5L326.5 106.25L323.75 101.5L321.25 97.75L319 94.75L316.25 91.5L313.75 88.75L312.5 87.25L310.5 85.5L307.5 82.75L303.25 79.5L299 76.5L293.25 73.25L286.5 70L279.5 67.5L271.5 65.5L264.75 64.5L257 64H253.75ZM170.25 188.25L166.5 191L161 194.5L155.5 197.5L152.25 199L152 199.75L151.75 257.75L150.75 260.25L148.75 262.5L146.25 263.5L145 263.75L140 264V264.75L141.75 266.25L142 266.75H142.5V267.25L144.5 269L167.75 292.25L168.75 291.75L196.25 264.25L195.75 264L190.25 263.75L187.75 262.75L185.5 260.75L184.5 258.75L184 255.5L183.75 207.25L178.25 200.25L174.75 195L172.25 190.75L170.75 188.25H170.25ZM341.25 188.25L337.75 194.25L335.5 197.75L332.25 202.25L329 206.25L328.25 207L328 212.5L327.75 249.75L326.75 252.25L324.75 254.5L322.5 255.5L321.25 255.75L316 256V256.75L317 257.25V257.75L318 258.75H318.5V259.25L320.5 261L343.75 284.25L344.75 283.75L372 256.5L371.75 256L366.25 255.75L363.75 254.75L361.5 252.75L360.5 250.75L360 247.75L359.75 199.25L355 196.75L349.25 193.5L343.75 189.75L341.75 188.25H341.25Z" fill="#3EB3FF"/>
<path d="M445.75 327.75H451L455.75 328.5L461 330.25L465.25 332.5L468 334.5L470.5 336.75L473 339.25L475.5 342.75L477.5 346.5L479 350.5L480 355.75V363.25L478.75 369L476.5 374.25L474 378.25L471 381.75L468.5 384L466 385.75L460.5 389L453.75 392.75L448.5 395.75L442.25 399.25L436.5 402.5L429.5 406.5L422.75 410.25L417 413.5L410.75 417L403.75 421L390.75 428.25L385.5 431.25L379.25 434.75L374 437.75L367.75 441.25L362.5 444.25L355.75 448L350.5 451L338 458L332.25 461.25L326 464.75L320.75 467.75L308.25 474.75L303 477.75L299.5 479.5L297.5 480H120.25L120 489.75L118.25 493.25L116.25 495L114.25 495.75L112.75 496H46.5L43.75 495L41.5 493L40.25 490.75L39.75 487.5V343.5L40.25 341.25L41.25 339.25L42 338.25H42.5V337.75L45 336.25L47.75 335.75H111L114.75 336.25L116.25 337L118.5 339L119.75 341.5L120 342.5V351.75H249L254.75 352.25L259 353.25L263.5 355.25L266.25 356.75L270.25 359.75L273.75 363.25L275.75 366L278 369.75L280 375L281 380L281.25 383.75L337.5 383.5L344.5 379.75L350 376.75L357.25 372.75L364.25 369L369.75 366L381.75 359.5L387.5 356.25L396 351.75L401.75 348.5L407.5 345.5L413.25 342.25L419 339.25L423.5 336.75L430.5 333L435.25 330.5L440 328.75L443.75 328L445.75 327.75ZM446.75 344L442.75 345L438.75 347L432.25 350.5L426.5 353.75L420.25 357L414.5 360.25L406.5 364.5L401 367.5L389.5 373.75L383.5 377L376.25 381L369.75 384.5L364.25 387.5L357.75 391L352 394.25L343.5 398.75L339 401.25L333 404.5L325.75 408.5L318.25 412.5L312.5 415.75L307.25 418.5L301.75 421.5L295.25 425L289.5 428.25L283.75 431.25L282 431.75H279L276.75 431L275.25 430L273.75 428.25L272.75 426L272.5 425V423L273.25 420.5L275 418L278.25 416L285.25 412.25L291 409L296.25 406.25L301.75 403.25L307 400.5V400.25L305 400H277.25L276.25 400.5L274.5 403.25L272.5 405.75L270 408.25L266.5 410.75L263 412.75L258.25 414.5L253.75 415.5L251 415.75L120.25 416L120 420.75V463.75L121.25 464L294.75 463.75L301 460.25L306.75 457L312 454L318.25 450.5L324 447.25L330.25 443.75L336.25 440.25L342.25 437L347.5 434L359 427.5L365.25 424L372.25 420L379 416.25L390.5 409.75L396.75 406.25L414 396.5L418.5 394L425.5 390L438 383L445 379L451.75 375.25L455.25 373.25L458 371.5L459.5 370.25V369.75H460L462 367L463.25 363.75L463.75 361.5V357.5L462.75 353.5L461 350.25L458.5 347.5L455.75 345.75L452.75 344.5L450 344H446.75ZM56.25 352L56 354.75V479.75L103 480L103.75 479.75V352H56.25ZM120.25 368L120 370.75V399.75L121.25 400L251.25 399.75L255 398.75L258.25 397L261.25 394.25L263.5 390.75L264.75 386.75L265 383.75L264.5 380L263.25 376.75L261.5 374L258.75 371.25L256.25 369.75L254 368.75L251.75 368.25L249.5 368H120.25Z" fill="black"/>
<path d="M111.75 47.75L115 48.25L117.25 49.75L119 51.75L120 54.25V63.75H136L138.75 64.25L140.75 65.25L142.5 67L143.75 69.25L144 70V74L142.5 77L140.75 78.75L138.5 79.75L137 80L108 80.25L104.5 80.75L100 83V83.5H99.5V84H99L97 88L96.5 90V94L97.5 97.25L99.25 99.75L101.5 101.75L104 103L106.25 103.5L116.75 103.75L121.5 104.25L125.25 105.25L129 107L132 108.75L134.75 111L137.75 114L140.5 118L142.5 122.25L143.75 126.75L144 128.5V135.5L143.25 139.25L141.75 143.5L140 146.75L137.5 150.25L134.25 153.5L131.5 155.5L128 157.5L124 159L120.25 160V165.75L120 169.75L119 172.25L116.75 174.75L114.5 175.75L113.5 176H110.25L107.75 175L105.25 172.75L104 170L103.75 168.5V160H86.5L83.75 159L81.5 157L80 154V150L81 147.5L82.5 145.75L84.5 144.5L86 144L87.75 143.75L117.5 143.5L120.5 142.75L123.5 141L125.25 139.25L126.75 136.75L127.5 133.75V130L126.5 126.75L125 124.5L124 123.25L121.75 121.75L119.5 120.75L116.25 120.25L105.25 120L101.75 119.5L97.75 118.25L93.75 116.25L91 114.5L88 111.75L86.25 110L84 106.75L81.75 102.5L80.25 97.5L79.75 93.5V90.25L80.5 85.5L81.75 81.5L83.75 77.5L85.5 75L87.75 72.25L90.75 69.5L94.25 67.25L98 65.5L101.5 64.5L103.5 64L103.75 55.5L104.25 53.25L105.5 50.75L107.5 49L109.75 48L111.75 47.75Z" fill="#3EB3FF"/>
<path d="M255.5 79.75L259 80.25L261.25 81.75L263 83.75L264 86.25V95.75H280L282.75 96.25L284.75 97.25L286.5 99L287.75 101.25L288 102V106L286.5 109L284.75 110.75L282.5 111.75L281 112L252 112.25L248.5 112.75L244 115V115.5H243.5V116H243L241 120L240.5 122V126L241.5 129.25L243.25 131.75L245.5 133.75L248 135L250.25 135.5L260.75 135.75L265.5 136.25L269.25 137.25L273 139L276 140.75L278.75 143L281.75 146L284 149.25L286 153L287.25 156.75L288 160.5V167.5L287.25 171.25L285.75 175.5L284 178.75L281.5 182.25L278.25 185.5L275.5 187.5L272 189.5L268 191L264.25 192V197.75L264 201.75L263 204.25L260.75 206.75L258.5 207.75L257.5 208H254.25L251.75 207L249.25 204.75L248 202L247.75 200.5V192H230.5L227.75 191L225.5 189L224 186V182L225 179.5L226.5 177.75L228.5 176.5L230 176L231.75 175.75L261.5 175.5L264.5 174.75L267.5 173L269.25 171.25L270.75 168.75L271.5 165.75V162L270.5 158.75L269 156.5L268 155.25L265.75 153.75L263.5 152.75L260.25 152.25L249.25 152L245.75 151.5L241.75 150.25L237.75 148.25L235 146.5L232 143.75L230.25 142L228 138.75L225.75 134.5L224.25 129.5L223.75 125.5V122.75L224.25 118.5L225.25 115L226.5 111.75L228.5 108.25L231.75 104.25L234.75 101.5L238.25 99.25L242 97.5L245.5 96.5L247.5 96L247.75 87.5L248.5 84.5L250 82.25L252 80.75L253.75 80L255.5 79.75Z" fill="#3EB3FF"/>
<path d="M399.75 47.75L403 48.25L405.25 49.75L407 51.75L408 54.25V63.75H424L426.75 64.25L428.75 65.25L430.5 67L431.75 69.25L432 70V74L430.5 77L428.75 78.75L426.5 79.75L425 80L396 80.25L392.5 80.75L388 83V83.5H387.5V84H387L385 88L384.5 90V94.25L385.5 97.25L387.25 99.75L389.5 101.75L392 103L394.25 103.5L404.75 103.75L409.5 104.25L413.25 105.25L417 107L420 108.75L422.75 111L425.75 114L428 117.25L430 121L431.25 124.75L432 128.5V135.5L431.25 139.25L429.75 143.5L428 146.75L425.5 150.25L422.25 153.5L419.5 155.5L416 157.5L412 159L408.25 160V165.75L408 169.75L407 172.25L404.75 174.75L402.5 175.75L401.5 176H398.25L395.75 175L393.25 172.75L392 170L391.75 168.5V160H374.5L371.75 159L369.5 157L368 154V150L369 147.5L370.5 145.75L374 144L375.75 143.75L405.5 143.5L408.5 142.75L411.5 141L413.25 139.25L414.75 136.75L415.5 133.75V130L414.5 126.75L413 124.5L412 123.25L409.75 121.75L407.5 120.75L404.25 120.25L393.25 120L389.75 119.5L385.75 118.25L381.75 116.25L379 114.5L375.75 111.5L373.5 109L371.25 105.5L369.5 101.75L368.5 98.5L367.75 93.25V91L368.25 86.5L369.25 83L370.5 80L371.75 77.5L373.5 75L376.25 71.75L378.75 69.5L382.25 67.25L386 65.5L389.5 64.5L391.5 64L391.75 55.5L392.5 52.5L394 50.25L396 48.75L397.75 48L399.75 47.75Z" fill="#3EB3FF"/>
</svg>
