<svg width="512" height="512" viewBox="0 0 512 512" fill="none" xmlns="http://www.w3.org/2000/svg">
<path d="M260 171.25H263.5L268.75 172L272.75 173.25L276.75 175L281.25 178L285 181.5L287 183.75L289 186.75L291.5 192.75L294.25 201L296.25 208.5L298 216.75L299.25 225.5L299.75 230.5L300 235V247L299.5 254L298.5 262L297.25 269L295.5 276.5L293.5 283.5L290.5 291.75L289.75 293.75L291.75 293.5L393.75 293.75L398.25 294.5L402.75 296L406.75 298L409.5 299.75L412 301.75L414.5 304L416.75 306.75L418.5 309.25L420 311.75L422 316.5L423 320.5L423.5 323.75V330.5L422.75 334.75L421.5 338.75L419.75 342.75L417.25 346.75L414.5 350L412 352.5L408.5 355L405 357L402.25 358.25L402.75 359.5L404.25 362L406 365.75L407.5 371L408 374.5V380.5L407.5 383.75L406.5 387.5L404.75 391.75L402.5 395.75L400.5 398.5L398.25 401L396.5 403L393 405.75L390.75 407.25H390.25L390.75 408.75L392.5 411.5L394.5 415.5L396 420L396.75 423.75L397 428.75L396.5 433.5L395.5 437.25L393.75 441.75L391.75 445.25L389.25 448.75L386.25 452L384.25 454L380.75 456.5L379.5 457.25L380 458.25L382.5 462.25L384.5 466.25L386 471.25L386.75 475.5V482L385.5 488.25L383.5 493.25L382.5 495.25L380.5 498.25L378.5 500.75L376.5 503L373.75 505.25L370 507.75L365.25 510L360.25 511.5L358.5 512H216.75V511.5L211.75 510L207.75 508L204.5 505.75L202 503.5L200 501.75L196.75 499L193.5 496.5L186.75 492L180.75 488.75L174.5 486L165.5 483L157.75 481L153.5 480V482.75L152.75 486L151 489.5L149.25 491.75L146.5 494.25L142.5 496.25L139.5 497L137 497.25H52L48.5 496.75L45.75 495.75L43 494.25L40 491.5L37.75 488L36.75 486L36 482.5V310.5L36.75 307.25L38.5 303.75L40.75 301L43 299L46 297.25L49.25 296.25L51.5 296H137.75L141.25 296.5L144.5 297.75L147.75 300L150 302.25L152 305.5L153 308L153.5 310.25V313L155 312L158.25 308.75L160.25 307L162.5 304.75L164.5 303L168.5 299.25L171.25 297L173.25 295L176 292.75L178.5 290.5L181.25 288.25L185.25 285L189.25 282L192.75 279.5L198 276.5L201.25 274.75L205 271.5L210.25 266.25L210.5 265.75H211L211.5 264.75L214 261.75L216.75 258L219.75 253.25L221.75 249.75L224.75 243.25L227 237L228.75 230.75L229.5 227.25L230.25 217.75L232 193.25L232.75 190L234.5 186.75L236.5 183.75L239.75 180L243.75 176.75L248 174.25L252.5 172.5L257.5 171.5L260 171.25ZM258.75 187.75L256.25 188.5L253.25 190L250.75 192.25L249 194.25L248.25 196L247.75 202L246.75 216L245.75 228.75L244.25 236L242.5 242L240.25 248.25L237.5 254.5L234.5 260.25L231.75 264.75L229.75 267.75L226.75 271.75L224.75 274.25L221.75 277.75L220 279.5L218.25 281.5L215.25 284.25L211.5 287.5L208.25 289.75L204.25 291.5L200 294.25L195.75 297.5L190.25 302L186.75 305L184.25 307.25L182.25 309L177.25 313.5L174.25 316.25L171 319.25L170 320V320.5L169 321L165.25 324.75L163.25 326.5L159.75 330L157.75 331.75L155.25 334.25L153.75 335.5L153.5 336.75V462.75L154.25 463.5L164 465.75L170.25 467.5L179.25 470.5L185.5 473L189.75 475L194.75 477.75L199 480.5L202.5 483L205.75 485.5L209 488.25L212.5 491.25L215.25 493.5L218.25 495L221 495.75H355.25L358.75 495L362.75 493L365 491.25L366.25 490L368 487.75L369.5 484.75L370.25 482L370.5 480V477.75L370 474.5L368.75 471L367 468.25L364.75 465.75L362.5 464L358.5 462.25L356.75 461.75L352 461.25L349.25 460.25L347.25 458.5L346 456.5L345.5 455V451.75L346.75 448.75L348.5 447L351 445.75L352 445.5H355.25L359.5 446L360.5 446.25H364.25L368 445L371.25 443.25L373.5 441.5L376 439.25L378.25 436.25L379.5 433.75L380.25 431.5L380.5 430.25V425.75L379.75 422.5L377.75 418.5L375.75 416L373.75 414.25L370.25 412.25L367 411.25L362.25 410.75L359.5 409.75L357.5 408.25L356 405.75L355.5 404V401.75L356.5 399L357.5 397.5L359.25 396L361.75 395H366.25L371 395.75L373.25 396.25H375.5L378.75 395.25L382.5 393.25L385.25 391L387.5 388.75L389.25 386.25L390.75 383.25L391.75 379.25V375.75L391 372.25L389.75 369.25L387.5 366L385 363.75L381.5 361.75L378.5 360.75L377 360.5L361.75 360.25L359.5 359.75L357.25 358.5L355.75 356.75L354.75 355L354.5 354V350.75L355.25 348.5L357 346.25L359 345L360.5 344.5L388.75 344.25L393 344L396.5 343L399.75 341.25L402.5 339L404.75 336L406.25 332.75L407 330L407.25 326L406.5 322L405.25 319L403.5 316.25L402 314.5L399 312.25L395.75 310.75L393 310L387 309.75H279.75L275.25 309.5L272.5 308.5L271.5 308L271 307L269.5 304.75L269 303V301L270 297.75L273.75 289.75L275.75 285L278.75 276L280.75 268.5L282.5 259L283.5 249.75L283.75 245.25V236.5L283 226.75L282 219.75L280.5 212.5L278.75 206L275.75 197L274.25 194L272 191.5L269.75 189.75L266.5 188.25L264.75 187.75H258.75ZM52.5 312.25L52.25 312.5V481H137.25V312.5L137 312.25H52.5Z" fill="black"/>
<path d="M253.25 0H259.25V0.5L261.25 1.75L263 3.75L265.25 8.5L268 15L281.75 46.75L285.75 56L286.25 57.5L301.25 58.75L340.75 62.5L344.5 63L347 64L349.5 66.25L350.75 68.75L351 70V72.25L350 74.75L349 76.25L345.5 79.75L342.75 82L339.5 85L337.5 86.75L334 89.75L331.5 92L329.5 93.75L327 96L325.25 97.5H324.75V98L322 100.25L318.75 103.25L316 105.5L312.25 109L309.5 111.25L306.5 114L305.25 115L305.75 118L313.25 151.5L317.75 171.5V174.5L316.75 177L315 179.25L313 180.5L311.25 181H307.5L303.5 179L298 175.75L290 171L286.25 168.75L279 164.5L272.75 160.75L265.5 156.5L258.75 152.5L256.75 151.25H255.25L251.5 153.5L221.5 171.25L214.25 175.5L208 179.25L205 180.75L204 181H200.25L198 180L196 178.25L194.75 176.25L194.25 174.75V171.25L198.75 151.25L204 127.75L206.5 116.75V114.5L205.5 114L202 110.75L200 109L196.5 106L193.5 103.25L191.5 101.5L188 98.5L185 95.75L183 94L179.5 91L176.5 88.25L174.5 86.5L171 83.5L168 80.75L165.25 78.5L162.5 75.75L161.25 73.25L161 72.5V69.75L162 67L163.5 65L165.75 63.5L169 62.75L216.5 58.25L225.75 57.5L226.25 56L229.5 48.5L233.25 39.75L236 33.5L241.25 21.25L244.5 13.75L248.25 5L249.75 2.5L251.5 1L253.25 0ZM256 28.75L255.25 29.75L252.5 36.25L249.25 43.75L246.5 50.25L242.75 58.75L239 67.5L237.25 70.5L235.25 72L233.25 72.75L228 73.5L193.5 76.75L188.75 77.25L191.75 80.25L194.5 82.5L198 85.75L200 87.5L203.5 90.5L206.75 93.5L209.5 95.75L213 99L215.75 101.25L219.25 104.5L221.25 106.25L223 108.5L223.75 110.5V114L221.25 125.5L219 135.25L215 153.25L214.5 155.25L214.75 156.25L219.75 153.5L225 150.25L230.25 147.25L237.75 142.75L251.25 134.75L254.25 133.5H257.75L260.75 134.75L287.75 150.75L295 155L297 156.25L297.5 156L296.5 151.25L291.25 127.75L288.5 115.5L288.25 114V110.25L289.75 107.25L292.75 104.25L295.5 102L298.75 99L300.75 97.25L304.25 94.25L307.5 91.25L310.25 89L313.5 86L315.5 84.25L318 82L320.75 79.75L322.5 78.25V77.75H323V77.25L294.5 74.5L279.25 73L276.5 72L274.75 70.5L272.75 67L266.25 52L263.25 45L259.25 35.75L256.25 28.75H256Z" fill="#3EB3FF"/>
<path d="M418.75 64H422.25L424.75 65L426.75 66.75L428.25 69.25L431 75.5L434 82.5L439.75 95.75L443.75 105L444.25 105.75L450.75 106.5L480.25 109.25L486 110L488 111L490 112.75L491.25 114.75L491.75 116.25V119.5L490.75 121.75L489.25 123.75L487 126L484.25 128.25L480.5 131.75L477.75 134L474.5 137L472.5 138.75L469 141.75L466.5 144L464.5 145.75L462 148L459.25 150.25L459 150.5L459.25 153.25L465.25 180L467.5 190L467.75 192.75L467 195.5L465.5 197.5L463.5 199.25L461.5 200L458.75 200.25L456 199.5L451.5 197L448.25 195L436 187.75L422.5 179.75L420.75 178.75L419.25 179.25L415.5 181.5L404.5 188L397.25 192.25L393.5 194.5L389.25 197L386 199L383.5 200L380.5 200.25L378 199.5L376.5 198.5L375.25 197.25L374 195.5L373.25 193L373.5 190L378.75 166.5L381.75 153L382 152.25V150.5L379 147.75L376.25 145.5L372.75 142.25L370.75 140.5L368.25 138.25L365.5 136L362 132.75L359.25 130.5L355.75 127.25L353.75 125.5L351.25 123.25L349.75 121L349.25 119.5V116.5L350.25 113.75L352.5 111.25L355 110L360.75 109.25L395.5 106L397 105.5L400.5 97.75L403.25 91.25L407.25 82L411 73.25L413 68.75L414.5 66.5L416.25 65L418.75 64ZM420.25 92.75L417.5 99.25L414.25 106.75L411.25 113.75L409.25 118L407.75 119.75L405.5 121L401.25 121.75L380.75 123.75L377.5 124L377 124.5L379.5 126.75L382.25 129L385.75 132.25L387.75 134L391.25 137L394.25 139.75L396.25 141.5L398.25 143.75L399.25 146.5V149.25L396.25 163L393.75 174L393.5 175.25L395 174.75L403.5 169.75L411.5 165L416.5 162L418.75 161.25H422.25L424.75 162.25L428.75 164.5L434.25 167.75L442.25 172.5L446.75 175.25L447.5 175L444.25 160.75L441.75 149.25V146.5L442.75 143.75L445 141.25L448.5 138L451.25 135.75L454.5 132.75L456.5 131L460 128L462.25 126L464 124.5V124.25L457.75 123.5L439.25 121.75L436.25 121.25L434 120.25L432.5 119L430.75 116L427.5 108.5L420.75 92.75H420.25Z" fill="#3EB3FF"/>
<path d="M89.75 64H93.25L95.75 65L97.5 66.5L99.25 69.25L102.5 76.75L106.25 85.5L111.25 97L114.5 104.5L115 106L119.25 106.25L153.75 109.5L156.75 110L159.75 111.5L161.5 113.5L162.5 115.5L162.75 116.5V119.25L161.75 121.75L160.25 123.75L158 126L155.25 128.25L152.25 131L150.25 132.75L146.75 135.75L143.5 138.75L140.75 141L137.5 144L135.5 145.75L133 148L130.25 150.25L129.75 151L134.5 172.5L138.5 190.25V194L137.5 196.25L135.25 198.75L133.25 199.75L132.25 200H128.5L126 199L118.75 194.75L111.75 190.5L106.5 187.5L99.5 183.25L95.5 181L91.75 178.75L90.25 179.25L86.5 181.5L80.5 185L73.75 189L66.5 193.25L60.25 197L55.75 199.5L54.5 200L51.5 200.25L49 199.5L46.75 198L45.25 196L44.25 193.25V191L47.25 177.5L52.75 153L53 150.5L50.5 148.25L48.5 146.5L46 144.25L43.25 142L41.5 140.25L38.75 138L35.75 135.25L33.75 133.5L31.25 131.25L29.25 129.5L25.75 126.5L22 123L20.5 120.5L20.25 119.75V116.25L21.5 113.25L22.5 112L24.75 110.5L27.25 109.75L42.5 108.25L66.5 106L68 105.5L70.75 99.25L73.75 92.25L78 82.5L81.75 73.75L84 68.75L85.5 66.5L87.5 64.75L89.75 64ZM91.25 92.75L83.25 111.25L80.75 117L79 119.5L77 120.75L74.25 121.5L54.25 123.5L48.25 124V124.75L50.75 127L53.5 129.25L57.25 132.75L60 135L63.5 138.25L66.25 140.5L68.5 142.75L70 145.5L70.25 146.75V149L68.5 157.25L66 168.25L64.5 174.75V175.25L66 174.75L87.5 162L89.5 161.25H93.25L96.25 162.5L103.5 166.75L107.75 169.25L117.75 175.25H118.25L118 173.25L113.5 153L112.75 149.5V146.25L113.75 143.75L115 142.25V141.75L116 141.25L119.5 138L121.5 136.25L124 134L126.75 131.75L130.5 128.25L133.25 126L135 124.5V124.25L131.5 123.75L110.25 121.75L106.25 121L103.75 119.25L102.25 117L100.25 112.75L94.5 99.25L91.75 93L91.25 92.75Z" fill="#3EB3FF"/>
<path d="M101.25 330.25H103.25L105.75 331L108 332.5L109.5 334.5L110.5 337V340.5L109.75 342.75L108.25 345L106.25 346.5L103.5 347.5H101.25L98.75 346.75L97.25 345.75L95.25 343.5L94.25 341V336.75L95.5 333.75L97.5 331.75L100 330.5L101.25 330.25Z" fill="black"/>
</svg>
