<svg width="512" height="512" viewBox="0 0 512 512" fill="none" xmlns="http://www.w3.org/2000/svg">
<path d="M261.25 90.5H302.75L307.5 91L312.75 92.25L318 94.5L322 96.75L325.25 99.25L327.75 101.5L330 103.75L333 107.75L335.5 112.25L337.5 117.25L338.75 122.5L339.25 129.25L339.5 138.75H407L420.75 139L425 139.5L430.25 140.75L435.75 142.75L440.5 145.25L444.25 147.75L446.75 149.75L449.25 152L452 154.75L454.75 158.25L457 161.75L459 165.25L461.75 171L505 257.5L507.25 262.5L507.75 264V380.25L507 387L505.75 393.75L504 399.75L501.75 406L498.25 413.25L495.5 418L492.75 422L490.5 425L488.25 427.75L485.25 431L481.25 435L478.5 437.25L474.75 440.25L470.25 443.25L466.5 445.5L461.75 448L454.5 451L448 453L441.5 454.5L435.5 455.5H434.75L434.5 457.5L432.5 463.75L429.75 469.75L426.75 474.75L423.5 479L421.25 481.5L419.75 483.25L417.75 485L415.5 487L411 490.25L405.75 493.25L400.75 495.5L395.5 497.25L390 498.5L384 499.25H376.5L370.25 498.5L365 497.25L359.75 495.5L352.5 492L348.25 489.25L345 486.75L342 484L338 480L335.75 477.25L333 473.25L330.25 468.5L327.75 462.75L326 457V456.25H183L182.25 459.25L180.5 464.25L178 469.75L175.5 474L172.75 477.75L170 481L168.25 483L166.25 484.75L163.75 487L160 489.75L155 492.75L150.25 495L145.5 496.75L139.5 498.25L134.75 499L132.25 499.25H124.75L118.5 498.5L113.25 497.25L108 495.5L103.5 493.5L98.75 490.75L95.5 488.5L92 485.75L86 479.75L83.25 476.25L80.75 472.5L77.75 467L75.75 462L73.75 455.25L67.75 454L62 452.5L56.75 450.75L51.5 448.5L47.25 446.5L40.5 442.5L35.75 439L33 436.75L30 434L27.25 431.5V431L26.5 430.75L24.75 428.75L22.5 426.25L18.75 421.25L16.25 417.5L13.25 412.25L10.5 406.5L8.25 400.5L6.5 394.5L5.25 388.5L4.5 383L4.25 380.25L4 369V257L4.25 253.5L5.5 249.75L7.5 247L10 244.75L13.25 243.25L16.25 242.75L19.75 243L22.25 243.75L24.75 245.25L27 247.25L28.75 250L29.75 252.5L30 254V328H275.5L294 327.75L298 327L301.25 325.75L304.25 324L306.75 322L309 319.5L311 316.25L312.25 313L313 309V127.25L312.25 124.25L310.75 121.5L308.75 119.25L305.75 117.5L303.25 116.75L288.75 116.5L260.75 116.25L257.5 115.25L255 113.75L253.5 112.5L251.5 109.75L250.25 107L250 106V101.25L251 98L252.5 95.5L255 93L258 91.25L259.5 90.75L261.25 90.5ZM339.25 164.75L339 306.5L338.75 311.75L337.75 317.75L336.25 322.75L334 328L332.5 330.75L329.5 335.25L326.75 338.5L325.75 339.5V340L324.75 340.5L322.75 342.5L318.75 345.5L315 347.75L311 349.75L306.25 351.5L301.25 352.75L296 353.5L288.75 353.75H30.25L30 354V378.75L30.75 384.75L32 390.25L34 396L37 402.25L39.25 405.75L41.75 409.25L44 411.75L45.75 413.75L48 416L50.75 418.25L53.75 420.5L58.25 423.25L62 425.25L65.5 426.75L70.25 428.25L73.25 429H74.5L75.5 426.5L77.75 420.5L79.75 416.5L81.75 413L84.75 408.75L85.25 407.75H85.75L88 405L91.75 401.25L94.25 399.25L97.75 396.75L101.5 394.5L105.25 392.5L111.75 390L117.75 388.5L123 387.75L126.25 387.5H130.5L136.5 388L141.75 389L147.5 390.75L152.75 393L157 395.25L160.75 397.75L164.25 400.5L167.75 403.5L168.5 404.5H169L169.5 405.5L172 408.25L175.25 412.75L177.75 417L180.25 422.5L182.25 428.5L182.75 430.25L195 430.5H299.5L326 430.25L328.5 422.75L330.5 418.25L333 413.75L335 410.75L337.75 407.25L340 404.75L343.75 401L348 397.75L352.75 394.75L357 392.5L363 390.25L367.25 389L372.75 388L379 387.5L385.5 387.75L391 388.5L396 389.75L401 391.5L407.25 394.5L411.75 397.25L415 399.75L418.5 402.75L421.75 406L424 408.75L426.75 412.5L430 418.25L432.25 423.25L434.25 429.25L435.25 429.5L441.75 428L447 426.25L452 424L456 421.75L459.25 419.5L462.5 417L466.25 413.5L467.5 412.25V411.75H468L470.75 408.25L472.25 406.25L474.5 402.75L477 398L479 393L480.5 387.75L481.5 382.25L482 376V364L481.5 363.5H471L467.25 363L464.25 361.75L462 360L460 357.75L458.5 354.5L458 352.25V349.25L458.75 346L460.25 343.25L462.25 341L464.5 339.5L466.75 338.5L469 338L482 337.75V286L481.75 285.5L423 285.25L417.75 284.75L413.5 284L408.5 282.5L403.25 280.25L399.25 278L395.5 275.25L392 272.25L389.5 269.75L386.75 266.25L385 263.75L382.75 260L380.5 254.75L379.25 251L378 245L377.5 238.5L377.25 164.75H339.25ZM403.25 164.75V240.25L403.75 243.5L404.75 246.5L406.25 249.5L408.5 252.5L410.75 254.75L413.25 256.5L416.75 258.25L420.25 259.25L425.75 259.75H476.75L476.5 258.5L467.75 241L465.5 236.25L463 231.5L460.5 226.25L458.25 222L455.5 216.25L435.25 175.75L433.25 172.75L431 170.25L428.5 168.25L424.75 166.25L421.75 165.25L418.5 164.75H403.25ZM125.75 413.25L121 414L116.75 415.5L112.75 417.5L109.75 419.75L106.75 422.5L104 425.75L101.75 429.5L100 433.5L98.75 438.5L98.5 441V445.5L99 449.5L100.5 454.5L102.5 458.5L104.25 461.25L107 464.5L109.5 466.75L113 469.25L118.25 471.75L121.75 472.75L124.75 473.25L129 473.5L134 473L137.75 472L141 470.75L144.75 468.75L148.75 465.75L152 462.5L155 458L156.75 454.25L158 450L158.5 447.25L158.75 442.5L158.25 437.75L156.75 432.5L154.5 427.75L152 424.25L149.75 421.75L147.25 419.5L143.5 417L139.25 415L134.75 413.75L131.25 413.25H125.75ZM378 413.25L373 414L368.5 415.5L365 417.25L361.75 419.5L359.25 421.75L357.5 423.5L355.25 426.5L353.25 430L352 432.75L350.75 437.25L350.25 441V446L351 450.5L352.5 455L354.5 459L357 462.5L360 465.75L363.25 468.25L367.25 470.5L370 471.75L373.5 472.75L376.5 473.25L380.5 473.5L385.75 473L389.5 472L392.75 470.75L396.5 468.75L399.5 466.5L402 464.25L404.25 461.75L406.5 458.25L408.25 454.75L409.5 451L410.25 446.75V440.25L409.5 435.75L408 431.5L406 427.5L404.25 425L401.25 421.5L398.25 419L395 417L392 415.5L387.5 414L382.5 413.25H378Z" fill="black"/>
<path d="M110.5 12.5L119 12.75L126.5 13.5L134 14.75L141.25 16.5L147 18.25L155.25 21.5L162.5 25L167.5 27.75L171 30L175.75 33.25L179 35.75L181.75 38L185.5 41.25L187.5 43.25L189 44.5L190.75 46.5L192.5 48.25L194.75 51L197.5 54.25L200.75 58.75L203.25 62.5L206.5 68L209.5 73.75L212.5 80.5L215 87.5L217 94.5L218.5 101.5L219.5 108.25L220 114.25V127L219.5 133.25L218.5 139.75L217.25 145.75L214.75 154.75L212.25 161.5L210 166.5L208 170.75L206.25 173.75L204.75 176.5L200.25 183.25L197 187.5L195 190L192.75 192.5L191 194.5L184.5 201L181.75 203.25L178.5 206L174 209.25L170.25 211.75L164.75 215L158 218.5L151 221.5L142 224.5L134.75 226.25L126.25 227.75L119 228.5H104.75L96 227.5L89.25 226.25L82.25 224.5L73.25 221.5L65.75 218.25L60.75 215.75L55.25 212.5L50.75 209.5L47.25 207L43.25 203.75L40.5 201.5L38.25 199.25L36.25 197.5L33.5 194.75L31.75 192.75L29.25 190L26.5 186.5L23 181.75L20.25 177.5L17.75 173.25L14.75 167.5L12 161.5L9.75 155.5L7.5 148L6 141.25L4.75 133.25L4.25 128.5L4 124.25V116.5L4.75 107.75L6.25 98.75L8.25 90.75L11.25 81.75L13.5 76.5L16.5 70.25L19 65.75L22 61L25 56.75L28 52.75L31 49.25L34 46L35.75 44.25L36 43.75H36.5V43.25H37V42.75H37.5V42.25L40.25 40L42 38.25L45.5 35.5L48.75 33L52 30.75L55.5 28.5L60.25 25.75L66 22.75L73 19.75L82 16.75L87.75 15.25L94.25 14L101.75 13L110.5 12.5ZM107.25 38.5L100 39.25L93.25 40.5L86.25 42.5L81.5 44.25L75.5 47L70.75 49.5L65.75 52.75L61 56.25L58.5 58.5L56.5 60.25L53.5 63L53 64L52.25 64.25L50.5 66.25L47 70.5L43.75 75L41 79.5L38.5 84L36.75 88L35.5 90.75L33 98.25L31.5 104.5L30.75 108.75L30 116V125.25L30.75 132.25L32 139.25L33.75 145.5L35.5 150.5L38.25 156.75L41 162L44.5 167.5L47.5 171.5L50.5 175L52.75 177.5L56.5 181.25L58.5 183L62.5 186.25L66.75 189.25L71.75 192.25L77 195L83 197.5L89.75 199.75L96 201.25L102.5 202.25L108.25 202.75H116.25L123.75 202L130.5 200.75L136 199.25L142 197.25L148 194.5L152 192.5L156.25 190L160.25 187.25L164.75 183.75L167.75 181L169.75 179.25L172.25 176.75L174 174.75L176.75 171.5L180 167L182.5 163.25L184 160.75L186 156.75L188.25 151.75L190.5 145.5L192.5 138L193.75 130.5L194.25 123.75V118L193.75 111L192.5 103.5L191 97.5L189 91.5L186.5 85.5L184 80.75L182 77.25L179 72.75L175.75 68.5L173.25 65.75L171.5 63.75L167 59.25L164.25 57L161 54.5L156.75 51.5L151.5 48.5L146.25 45.75L139.25 43L134.5 41.5L128.25 40L122 39L115.75 38.5H107.25Z" fill="#3EB3FF"/>
<path d="M147.25 85.5H151.75L154.25 86.25L157 87.75L159 89.5L160.75 92L162 95L162.25 96V100.5L161.25 103.75L159.5 106.5L156 110.25L150.25 116L150 116.5H149.5V117H149V117.5H148.5L148 118.5L141 125.5L140.75 126H140.25L139.75 127L132.25 134.5L130.5 136.5L121.5 145.5L119.75 147.5L117.25 150L113.25 153L109.25 155L106 156L102 156.75H98.5L94.25 156L90 154.5L86.5 152.5L83.75 150.25L76 142.5V142H75.5L73.75 140L69.25 135.5V135L68.5 134.75L66.75 132.75L64.5 130.5L62.75 127.75L61.75 125.5L61.5 124.25V120L62.5 116.75L64 114.25L65.25 112.75L68 110.75L70 109.75L72 109.25H76.75L79.25 110L82.25 111.75L85.5 114.75L86.5 115.75V116.25H87L88.75 118.25L96.5 126V126.5H97L98.75 128.5L100 129.75H100.75L102.5 127.75L108 122.25L109.25 120.75L116.75 113.25L118 111.75H118.5L119 110.75L128.25 101.5L130 99.5L137.25 92.25L138.5 90.75H139L139.5 89.75L141.75 87.75L145.25 86L147.25 85.5Z" fill="#3EB3FF"/>
</svg>
