<?xml version="1.0" encoding="UTF-8"?>
<svg version="1.1" viewBox="0 0 2048 2048" width="512" height="512" xmlns="http://www.w3.org/2000/svg">
<path transform="translate(151,105)" d="m0 0h36l23 4 21 7 23 11 12 8 13 10 13 12 7 8 9 12 8 13 8 15 7 19 4 15 3 20v31l-3 19-6 21-8 19-9 16-12 16-9 10-12 12-15 11-13 8-14 7h-2v2l6 2 14 8 16 12 12 11 8 8 12 16 9 15 9 21 5 17 3 20 1 16 1 80 10-12 9-11 12-14 11-12 9-10 2-3h2l2-4 30-30h2v-2l8-7 15-14 11-9 14-12 14-11 18-14 17-12 20-14 16-10 19-12 25-14h2v-106l2-14 5-13 7-11 9-9 13-8 12-4 6-1h13l14 3 12 6 9 7 7 7 8 13 4 14 1 13v46l19-7 38-12 42-11 37-8 34-6 40-5 31-3 1-80 3-15 8-16 9-10 9-7 12-6 7-2 16-1 13 2 10 4 10 6 10 9 7 10 5 11 2 10 1 82v3l41 4 43 6 42 8 48 12 34 10 26 9 8 3v-55l3-13 7-14 9-11 13-9 12-5 10-2h12l11 2 10 4 10 6 9 8 7 10 5 10 3 12 1 114 6 2 29 17 23 15 18 12 17 12 17 13 18 14 14 12 11 9 15 14 8 7 8 8 3 2v2l4 2 8 8 7 8 17 17 7 8 9 10 9 11 11 13 9 11 1-91 3-21 4-15 7-19 9-17 12-17 11-12 11-11 16-12 18-10 3-2-19-10-16-11-13-11-14-14-10-13-11-18-8-17-6-18-5-25-1-12v-12l2-20 5-23 7-19 8-16 10-16 14-17 10-10 14-11 15-10 15-8 22-8 17-4 13-2h36l18 3 21 6 21 9 18 11 14 11 13 12 12 14 9 13 7 12 7 16 10 30h1v62l-2 2-6 22-6 15-11 21-8 11-8 10-6 7h-2l-2 4-8 7-13 10-20 12-11 5 12 6 18 12 11 9 16 16 12 16 10 18 8 19 5 19 2 13 1 13v1312l-2 15-4 11-7 11-5 5-9 8-12 6-10 3-7 1h-212l-13-3-14-7-12-11-7-10-5-11-2-7-1-9v-122h-1388v80l-1 48-3 12-7 14-11 12-11 7-9 4-15 3h-211l-16-4-11-6-10-9-7-8-7-14-2-7-1-9v-1318l2-18 5-21 6-16 8-16 10-15 8-10 11-12 13-11 15-10 15-8h2v-2l-5-1-17-9-17-12-15-14-9-9-13-17-11-19-8-19-7-26-1-1v-54l8-29 8-19 10-18 9-12 8-10 13-13 14-11 14-9 15-8 15-6 23-6zm12 121-10 2-12 6-9 8-8 13-3 12v14l3 12 7 11 9 9 12 6 7 2h20l11-4 11-7 8-9 5-10 2-6 1-15-3-14-6-11-4-5-11-8-12-5-6-1zm1710 0-13 3-11 7-5 4-7 10-5 12-1 6v13l4 13 7 11 10 9 10 5 8 2h19l11-4 10-6 7-7 6-9 4-14v-14l-4-14-7-11-9-8-10-5-11-3zm-788 217-1 43v631l97 1h61l85-1v-613l-5-3-29-12-34-12-30-9-40-10-43-8-29-4-27-3zm-129 0-49 6-39 7-42 10-34 10-35 12-35 14-1 1v614l88 1h63l91-1v-674zm-795 95-11 4-8 6-7 8-4 8-2 14v1244h79v-1251l-3-10-6-10-8-7-10-5-5-1zm1711 0-10 3-9 6-8 9-4 9-1 4-1 13v1240h80l-1-1253-4-11-6-8-8-7-9-4-4-1zm-424 32m1 1-1 5v541l71 1h190l8-1 1-1v-225l-19-38-12-22-13-23-15-24-13-19-12-17-13-17-10-13-13-15-12-14-4-5h-2l-2-4-40-40-8-7-10-9-11-9-13-11-28-21-17-12zm-851 0-15 10-32 24-14 12-11 9-15 14-8 7-31 31-7 8-12 13-9 11-11 13-13 17-14 19-16 24-11 17-7 11-18 33-13 25-10 19-1 3-1 42v184l52 1h141l77-1 1-5v-298l-1-243zm1120 87m-1388 580-1 176v227l1 1h269l1-3v-337l-1-64zm391 0v404h242v-404zm364 0-1 50v354h243v-404zm364 0-1 8v396h270v-404z"/>
</svg>
