<svg width="512" height="512" viewBox="0 0 512 512" fill="none" xmlns="http://www.w3.org/2000/svg">
<g clip-path="url(#clip0_338_17)">
<path d="M344.25 0H470L473.75 1.75L476 3.25L478.5 5.5L480.5 8.25L482 11.5L482.5 13.5L482.75 16.25V49.5L482.25 54L481 57.5L479 60.5L477.75 62L475.25 64L471.5 65.75L467.75 66.75H466.5L466.75 158.75L486.25 168.5L490.75 171.25L494.25 173.75L497.5 176.75L501 180.25L503.5 183.5L506 187.5L508.25 191.75L510.5 197.75L511.5 201V202.25H512V222.5L511.5 223L510.5 226.75L508.5 232.25L506.5 236.25L503.75 240.75L499.75 245.75L496.5 249L493.75 251.25L490.25 253.75L486.5 256L481.5 258.25L477 259.75L471.75 261L466.5 261.75V332.5L465.75 335L464 337.5L461 339L459.75 339.25H457.25L454.75 338.25L453 336.75L451.75 334.75L451.25 333.25V260.25L448.5 259.5L444.25 258L438 255L429.5 250.75L424.75 248.5L383.25 227.75L377.5 225L335.5 204L329.75 201.25L282.75 177.75L278 175.5L274 173.5L269.25 171.25L264.5 169.75L259.75 169H254L249 169.75L245 171L241.75 172.25L201.75 192.25L197 194.5L148 219L143.25 221.25L138.5 223.75L134.25 225.75L99.75 243L95 245.25L72 256.75L65.75 259.25L62.5 260.25V475.5L63 479L64.5 483.5L66.75 487.25L68.5 489.25V489.75H69L70.25 491L73.25 493.25L76.75 495L80 496L83.25 496.5H430.5L434.5 495.75L437.75 494.5L441 492.75L443.5 490.75L444.5 489.75H445L445.5 488.75L447.75 485.75L449.75 481.5L450.75 477.25L451 474.25L451.25 364.5L452.25 362.25L454 360.25L456 359L458 358.5L460.75 358.75L463 359.75L465 361.5L466.25 364L466.5 365V475.25L465.75 481.75L463.75 488.25L461.75 492.25L459.25 496.25L457.25 498.75L454.25 502L450.75 504.75L448.25 506.5L444 508.75L438.5 510.75L433.5 512H80.25L73.5 510.25L69.5 508.75L65.75 506.75L62.75 504.75L60 502.5L58.25 501L56.5 499L53.75 495.5L51.25 491.5L49 486.25L47.75 481.75L47 476.25L46.75 261.75L40.25 260.75L34.5 259.25L29 257L24.75 254.75L21.75 252.75L18.5 250.25L14.75 246.75L12 243.75L8.5 239L6 234.5L3.75 229.25L2.25 224.5L1.25 219.25L0.75 213.25L1 208L2 201.5L3.5 196.25L5.5 191.5L7.5 187.5L10.5 183L13 179.75H13.5L14 178.75L17.5 175.25L21.75 172L25.25 169.75L32 166.25L41 161.75L46.75 159L62.25 151.25L68 148.5L76.5 144.25L82.25 141.5L87.75 138.75L90 138H93.25L95.5 139L97.5 140.75L98.75 142.75L99.25 145L99 147.75L98 149.75L96.5 151.5L93 153.5L86.25 156.75L67.75 166L62 168.75L53.5 173L47.75 175.75L34.75 182.25L31.25 184.25L28 186.75L27.25 187.5H26.75V188H26.25L25.75 189L23.25 191.75L21 195.25L19 199.25L17.25 204.25L16.5 209L16.25 213.25L16.75 218L17.75 222.25L19.25 226.25L21.25 230.25L23.75 233.75L26.5 236.75L28.75 238.75L32 241L35.5 243L40 244.75L45.75 246L48.75 246.25H51.25L54.75 246L60.25 244.75L65.25 242.75L89.75 230.5L95 228L140 205.5L145.25 203L177.75 186.75L183 184.25L187.25 182L193 179.25L227 162.25L238.5 156.75L243 155.25L248.75 154L253 153.5H260.25L266.25 154.25L272 155.75L278.25 158.25L308.75 173.5L313.5 175.75L355 196.5L359.75 198.75L364 201L369.75 203.75L405.25 221.5L410 223.75L414.25 226L420 228.75L448 242.75L453 244.75L457.25 245.75L461.75 246.25H465L469 245.75L473.25 244.75L478.25 242.75L482.25 240.5L485.75 237.75L489.25 234.25L490.75 232.25L492.5 229.5L494.5 225.5L496 221.25L496.75 217.75L497 215.75V208.75L496 203.5L494.5 199L491.75 193.75L489.25 190.25L487.5 188.5V188L486.5 187.5L484.25 185.5L480.5 183L472.25 178.75L467.5 176.5L428.5 157L422.75 154.25L375.75 130.75L370.5 128.25L315.5 100.75L310.75 98.5L274.25 80.25L269.5 78.25L265.5 77L259.5 76.25H256.25L251.75 76.75L247 78L242.25 80L236 83L218 92L212.25 94.75L203.75 99L199 101.25L187.5 107L181.75 109.75L172.75 114.25L167 117L153 124L147.25 126.75L140.75 130L136 132.25L126.5 137L124.25 137.75H122L119.5 137L117.5 135.5L116 133L115.5 132L115.25 129.5L116.25 126.25L118.5 123.75L125.25 120.25L134 116L145.5 110.25L150.25 108L154.25 106L160 103.25L177 94.75L182.75 92L195.75 85.5L201.5 82.75L215.5 75.75L227 70.25L238 64.75L243.5 62.75L249 61.5L255 60.75H260.5L267 61.5L273 63L278 65L284.25 68L303.25 77.5L308 79.75L337.5 94.5L343.25 97.25L347.5 99.5V66.75L344.75 66.5L341 65.25L338.5 63.75L336.25 62L334 59.25L332.25 55.75L331.5 53L331.25 51.5V15L332 11.5L334 7.25L337 4L339.25 2.25L342.75 0.5L344.25 0ZM348 15L346.75 15.5L346.5 23.25V40.75L346.75 51.25L347.25 51.5H466.5L467.25 50.75V15.75L467 15.25L465.75 15H348ZM363 66.75L362.75 67V107.25L403.75 127.75L408.5 130L442 146.75L446.75 149L450.5 151H451.25V66.75H363Z" fill="black"/>
<path d="M210 329.5H302C306.694 329.5 310.5 333.306 310.5 338V504.5H201.5V338C201.5 333.306 205.306 329.5 210 329.5Z" stroke="black" stroke-width="15"/>
</g>
<defs>
<clipPath id="clip0_338_17">
<rect width="512" height="512" fill="white"/>
</clipPath>
</defs>
</svg>
