<?xml version="1.0" encoding="UTF-8"?>
<svg version="1.1" viewBox="0 0 2048 2048" width="512" height="512" xmlns="http://www.w3.org/2000/svg">
<path transform="translate(994)" d="m0 0h69v1l26 6 20 6 26 11 18 10 16 11 10 8 13 11 18 18 6 5v2l4 2 26 26 8 7 38 38 8 7 34 34 8 7 24 24 1-28 2-16 4-13 5-10 8-11 4-5h2l2-4 13-9 12-6 16-4 12-1h321l18 2 13 4 14 8 10 8 7 7 7 10 7 14 3 10 1 7 1 30v471l2 5 11 11 2 1v2l4 2 18 18 8 7 20 20 8 7 23 23 8 7 21 21 2 1v2l4 2 17 17 8 7 24 24 9 13 6 12 2 9h2v37h-2l-2 10-9 17-8 10-7 7-14 9-12 5-11 3-8 1-116 1-10-1v209l-1 120-3 14-5 14-9 14-4 5-8 7-11 7-11 5-14 4-8 1h-16l-15-3-15-6-11-7-10-9-10-14-7-16-3-14-1-11-1-319h-1314l-11-1v709l1 25 3 21 5 17 6 15 9 17 10 14 12 14 11 10 17 12 14 8 19 8 19 5 22 3 218 1v-575l2-15 4-12 7-13 10-13h2l2-4 13-9 12-6 16-4 11-1h442l19 2 14 5 14 8 12 11 9 11 8 16 3 10 1 7 1 26v421l-1 135 212-1 21-3 21-6 16-7 15-8 14-10 13-12 9-9 11-15 10-17 8-19 5-19 3-21 2-26 4-15 6-12 7-10 9-10 14-10 11-5 9-3 15-2h9l19 3 16 7 13 9 10 10 9 13 5 11 4 15v37l-2 19-4 23-6 24-8 24-12 28-13 23-11 17-14 19-9 10-7 8-21 21-14 11-10 8-21 14-25 14-22 10-25 9-27 7-35 7h-329l-17-6-13-7-11-9-9-10-8-13-5-13-2-10-1-12-1-571h-267l-10-1v495l-1 87-3 14-5 12-7 12-11 12-8 6-14 8-15 5-1 1h-338l-20-4-24-5-24-7-19-7-20-9-19-10-19-12-11-8-13-10-12-11-8-7-15-15-9-11-7-8-13-18-11-18-12-22-12-29-7-21-6-26-4-26-2-28-1-727-127-1-16-3-14-6-11-8-10-9-10-14-6-13-4-12v-33l8-19 9-14 7-8h2v-2l8-7 16-16 8-7 16-16h2v-2l8-7 14-14 8-7 20-20h2v-2l8-7 15-15 8-7 17-17 8-7 17-17 8-7 17-17h2v-2l8-7 15-15 8-7 17-17h2v-2l8-7 15-15 8-7 17-17h2v-2l8-7 15-15 8-7 17-17h2v-2l8-7 15-15 8-7 17-17h2v-2l8-7 15-15 8-7 17-17h2v-2l8-7 15-15 8-7 17-17h2v-2l8-7 15-15 8-7 17-17h2v-2l8-7 15-15 8-7 17-17h2v-2l8-7 15-15 8-7 17-17h2v-2l8-7 15-15 8-7 17-17h2v-2l8-7 15-15h2l1-3 8-7 16-16h2v-2l8-7 13-13 8-7 17-17h2v-2l8-7 15-15h2l1-3 8-7 11-10 17-13 19-12 17-9 23-9 21-6 16-4 7-1zm34 160-14 1-15 4-14 7-11 9-10 9v2l-4 2-22 22-8 7-12 12-2 1v2l-4 2-23 23-8 7-17 17-4 3v2l-4 2-19 19-8 7-13 13-2 1v2l-4 2-21 21-8 7-17 17-4 3v2l-4 2-18 18-8 7-14 14-2 1v2l-4 2-21 21-8 7-17 17-8 7-18 18-8 7-14 14-2 1v2l-4 2-21 21-8 7-17 17-4 3v2l-4 2-19 19-8 7-13 13-2 1v2l-4 2-21 21-8 7-17 17-8 7-18 18-8 7-14 14-2 1v2l-4 2-17 17-8 7-18 18-3 2v2l-4 2-21 21-8 7-13 13-2 1v2l-4 2-19 19-8 7-5 5h1487l-2-4-8-7-21-21h-2v-2l-8-7-19-19-9-13-6-13-3-13-1-11-1-449h-158l-1 23-1 126-3 14-5 12-6 10-8 10-9 8-14 8-14 5-9 2h-23l-13-3-12-5-12-8-12-11-5-4-43-43h-2l-1-3-8-7-34-34h-2l-2-4-8-7-33-33-8-7-25-25h-2l-2-4-8-7-33-33-8-7-37-37h-2l-2-4-8-7-29-29-11-9-14-8-15-5z"/>
<path transform="translate(479,2047)" d="m0 0 4 1z"/>
<path transform="translate(2047,947)" d="m0 0"/>
</svg>

