<?xml version="1.0" encoding="UTF-8"?>
<svg version="1.1" viewBox="0 0 2048 2048" width="512" height="512" xmlns="http://www.w3.org/2000/svg">
<path transform="translate(237,30)" d="m0 0h1573l12 2 9 4 8 6 7 8 5 12 1 9v1898l-1 15-4 11-7 9-8 7-9 4-13 2h-1575l-11-2-10-5-7-6-7-10-4-13v-1916l4-12 6-8 7-7 12-6zm43 84v1820h1487l1-1v-1819z"/>
<path transform="translate(394,693)" d="m0 0h555l11 4 9 6 7 8 5 10 2 9v1082l-2 11-6 12-5 6-11 7-9 3-15 1h-532l-13-2-12-6-8-8-7-14-2-11v-1079l2-10 6-12 7-8 10-6zm51 83v992l66 1h386l2-1v-992z"/>
<path transform="translate(1105,692)" d="m0 0h538l11 1 12 5 9 7 7 10 4 12v1090l-3 10-7 11-7 6-10 5-7 2h-554l-11-4-8-6-8-9-4-8-2-8v-1089l4-12 8-11 8-6 11-5zm44 84-1 852v140l65 1h386l3-1 1-992z"/>
<path transform="translate(400,196)" d="m0 0h1243l12 1 10 4 9 7 7 9 4 9 1 4v346l-4 12-9 12-11 7-10 3-12 1h-1239l-11-2-10-5-8-7-6-9-4-11-1-8v-333l2-11 5-10 9-10 10-6 5-2zm46 83-1 1v247h1157v-248z"/>
</svg>
