<svg width="623" height="238" viewBox="0 0 623 238" fill="none" xmlns="http://www.w3.org/2000/svg">
<path fill-rule="evenodd" clip-rule="evenodd" d="M52 123L144.5 55L239 123C239 123 233.716 140.639 229 151.5C224.016 162.979 219.02 168.69 211.047 177.803C210.704 178.195 210.355 178.594 210 179C200.076 190.356 193.361 195.861 181 204.5C167.754 213.758 144.5 222.5 144.5 222.5C144.5 222.5 122.942 213.415 110.5 204.5C98.2414 195.716 91.257 190.499 81.5 179C73.1957 169.213 69.3552 162.922 63.5 151.5C57.8595 140.497 52 123 52 123ZM115 111H140V136H115V111ZM173 111H148V136H173V111ZM115 145H140V170H115V145ZM173 145H148V170H173V145Z" fill="#3EB3FF"/>
<path d="M0 125L144.5 17L291.5 125L278 143L144.5 47L13.5 143L0 125Z" fill="#2A4B71"/>
<path fill-rule="evenodd" clip-rule="evenodd" d="M55 66.5754L2 106L8 114L55 78.8791V66.5754ZM87 42.7719V54.967L144.5 12L285.5 114L291.5 106L144.5 0L87 42.7719Z" fill="#2A4B71"/>
<path d="M40 121C45.0768 135.254 46.1413 144.012 53 157.5C60.9327 173.1 66.4829 181.769 79 194C90.121 204.867 98.1177 209.083 111.5 217C124.051 224.425 145 233.5 145 233.5C145 233.5 167.692 224.201 181 216C194.166 207.886 201.505 202.875 212.5 192C223.58 181.041 229.414 174.113 237 160.5C245.178 145.826 248.506 136.53 251.5 120" stroke="#2A4B71" stroke-width="8"/>
<rect x="60" y="25" width="22" height="61" fill="#2A4B71"/>
<path d="M310.156 182.157C310.156 182.997 310.396 183.705 310.876 184.281C311.356 184.857 312.004 185.337 312.82 185.721C313.636 186.105 314.524 186.465 315.484 186.801C316.444 187.137 317.392 187.509 318.328 187.917C319.288 188.301 320.176 188.781 320.992 189.357C321.808 189.909 322.456 190.617 322.936 191.481C323.416 192.321 323.656 193.377 323.656 194.649C323.656 196.113 323.308 197.361 322.612 198.393C321.916 199.425 320.956 200.217 319.732 200.769C318.508 201.321 317.08 201.597 315.448 201.597C314.248 201.597 313.132 201.441 312.1 201.129C311.092 200.793 310.156 200.361 309.292 199.833L308.572 201.201H307.312C307.264 200.385 307.168 199.521 307.024 198.609C306.88 197.673 306.724 196.749 306.556 195.837C306.388 194.925 306.22 194.097 306.052 193.353L307.24 192.993C308.008 194.817 308.884 196.257 309.868 197.313C310.852 198.345 311.848 199.077 312.856 199.509C313.864 199.941 314.8 200.157 315.664 200.157C316.408 200.157 317.164 200.013 317.932 199.725C318.7 199.437 319.336 198.993 319.84 198.393C320.368 197.769 320.632 196.977 320.632 196.017C320.632 195.081 320.392 194.313 319.912 193.713C319.432 193.089 318.784 192.561 317.968 192.129C317.152 191.673 316.264 191.277 315.304 190.941C314.368 190.581 313.42 190.209 312.46 189.825C311.5 189.417 310.612 188.949 309.796 188.421C309.004 187.893 308.356 187.233 307.852 186.441C307.372 185.649 307.132 184.665 307.132 183.489C307.132 182.097 307.48 180.897 308.176 179.889C308.872 178.881 309.82 178.113 311.02 177.585C312.22 177.033 313.576 176.757 315.088 176.757C316.12 176.757 317.056 176.913 317.896 177.225C318.736 177.513 319.564 177.945 320.38 178.521L321.1 177.117H322.36C322.456 178.341 322.6 179.565 322.792 180.789C323.008 181.989 323.236 183.153 323.476 184.281L322.288 184.641C321.664 182.841 320.908 181.485 320.02 180.573C319.132 179.661 318.232 179.037 317.32 178.701C316.408 178.365 315.58 178.197 314.836 178.197C313.468 178.197 312.34 178.569 311.452 179.313C310.588 180.033 310.156 180.981 310.156 182.157ZM327.059 201.237V199.977H329.543L329.759 199.761V186.009L329.543 185.757H327.059V184.497C327.683 184.497 328.331 184.497 329.003 184.497C329.675 184.473 330.347 184.449 331.019 184.425C331.691 184.401 332.339 184.353 332.963 184.281L333.179 184.497V199.761L333.395 199.977H335.879V201.237H327.059ZM331.307 180.969C330.731 180.969 330.215 180.753 329.759 180.321C329.303 179.865 329.075 179.337 329.075 178.737C329.075 178.113 329.303 177.585 329.759 177.153C330.215 176.721 330.731 176.505 331.307 176.505C331.931 176.505 332.459 176.721 332.891 177.153C333.323 177.585 333.539 178.113 333.539 178.737C333.539 179.337 333.323 179.865 332.891 180.321C332.459 180.753 331.931 180.969 331.307 180.969ZM356.302 199.761L356.518 199.977H359.038V201.237H350.182V199.977H352.666L352.882 199.761V189.465C352.882 188.289 352.678 187.401 352.27 186.801C351.862 186.177 351.154 185.865 350.146 185.865C349.21 185.865 348.31 186.189 347.446 186.837C346.582 187.485 345.682 188.601 344.746 190.185V199.761L344.962 199.977H347.446V201.237H338.626V199.977H341.11L341.326 199.761V186.009L341.11 185.757H338.626V184.497C339.25 184.497 339.874 184.497 340.498 184.497C341.146 184.473 341.782 184.449 342.406 184.425C343.054 184.401 343.69 184.353 344.314 184.281L344.53 184.497V187.845H344.746C345.418 186.765 346.258 185.877 347.266 185.181C348.298 184.485 349.606 184.137 351.19 184.137C352.462 184.137 353.47 184.353 354.214 184.785C354.958 185.193 355.486 185.757 355.798 186.477C356.134 187.173 356.302 187.953 356.302 188.817V199.761ZM370.507 201.597C368.947 201.597 367.519 201.249 366.223 200.553C364.951 199.857 363.931 198.861 363.163 197.565C362.419 196.269 362.047 194.745 362.047 192.993C362.047 191.121 362.455 189.537 363.271 188.241C364.087 186.921 365.179 185.913 366.547 185.217C367.915 184.497 369.403 184.137 371.011 184.137C372.163 184.137 373.219 184.341 374.179 184.749C375.139 185.133 375.907 185.673 376.483 186.369C377.059 187.041 377.347 187.821 377.347 188.709C377.347 189.357 377.155 189.873 376.771 190.257C376.411 190.641 375.955 190.833 375.403 190.833C374.875 190.833 374.407 190.653 373.999 190.293C373.615 189.909 373.423 189.441 373.423 188.889C373.423 188.481 373.543 188.097 373.783 187.737C374.023 187.377 374.455 187.125 375.079 186.981C374.599 186.477 374.011 186.093 373.315 185.829C372.643 185.541 371.875 185.397 371.011 185.397C369.739 185.397 368.719 185.721 367.951 186.369C367.207 186.993 366.655 187.857 366.295 188.961C365.935 190.065 365.755 191.301 365.755 192.669C365.755 194.229 365.983 195.561 366.439 196.665C366.919 197.769 367.567 198.621 368.383 199.221C369.199 199.797 370.111 200.085 371.119 200.085C372.151 200.085 373.123 199.785 374.035 199.185C374.947 198.585 375.787 197.769 376.555 196.737L377.527 197.565C376.951 198.357 376.327 199.053 375.655 199.653C375.007 200.253 374.263 200.733 373.423 201.093C372.583 201.429 371.611 201.597 370.507 201.597ZM389.403 200.085C390.651 200.085 391.719 199.797 392.607 199.221C393.519 198.645 394.299 198.009 394.947 197.313L395.919 198.141C395.415 198.741 394.839 199.305 394.191 199.833C393.567 200.361 392.811 200.793 391.923 201.129C391.035 201.441 389.955 201.597 388.683 201.597C387.171 201.597 385.767 201.249 384.471 200.553C383.199 199.857 382.167 198.861 381.375 197.565C380.607 196.245 380.223 194.685 380.223 192.885C380.223 191.085 380.607 189.537 381.375 188.241C382.167 186.921 383.199 185.913 384.471 185.217C385.767 184.497 387.171 184.137 388.683 184.137C390.195 184.137 391.503 184.437 392.607 185.037C393.711 185.613 394.563 186.501 395.163 187.701C395.787 188.901 396.099 190.413 396.099 192.237H383.463V190.977H392.175C392.079 189.177 391.743 187.797 391.167 186.837C390.615 185.877 389.715 185.397 388.467 185.397C387.411 185.397 386.547 185.721 385.875 186.369C385.227 186.993 384.735 187.869 384.399 188.997C384.087 190.125 383.931 191.421 383.931 192.885C383.931 194.325 384.171 195.585 384.651 196.665C385.155 197.745 385.815 198.585 386.631 199.185C387.471 199.785 388.395 200.085 389.403 200.085ZM423.424 194.181H424.684L423.1 201.237H407.188C407.188 199.869 407.476 198.645 408.052 197.565C408.628 196.485 409.372 195.501 410.284 194.613C411.196 193.725 412.156 192.873 413.164 192.057C414.196 191.241 415.168 190.413 416.08 189.573C416.992 188.733 417.736 187.821 418.312 186.837C418.888 185.853 419.176 184.737 419.176 183.489C419.176 181.905 418.744 180.633 417.88 179.673C417.04 178.689 415.948 178.197 414.604 178.197C413.38 178.197 412.324 178.461 411.436 178.989C410.572 179.493 409.96 180.225 409.6 181.185L407.512 182.985C407.512 182.001 407.8 181.041 408.376 180.105C408.976 179.145 409.852 178.353 411.004 177.729C412.18 177.081 413.644 176.757 415.396 176.757C416.308 176.757 417.22 176.865 418.132 177.081C419.044 177.273 419.872 177.621 420.616 178.125C421.384 178.605 421.996 179.253 422.452 180.069C422.932 180.885 423.172 181.881 423.172 183.057C423.172 184.401 422.92 185.565 422.416 186.549C421.912 187.509 421.228 188.349 420.364 189.069C419.524 189.789 418.6 190.461 417.592 191.085C416.608 191.709 415.6 192.345 414.568 192.993C413.56 193.617 412.624 194.325 411.76 195.117C410.896 195.909 410.2 196.845 409.672 197.925H416.368C417.76 197.925 418.912 197.841 419.824 197.673C420.76 197.505 421.504 197.157 422.056 196.629C422.632 196.077 423.088 195.261 423.424 194.181ZM409.708 185.505C409.108 185.505 408.592 185.289 408.16 184.857C407.728 184.401 407.512 183.777 407.512 182.985L409.6 181.185C410.08 181.161 410.476 181.245 410.788 181.437C411.124 181.629 411.388 181.893 411.58 182.229C411.772 182.565 411.868 182.937 411.868 183.345C411.868 183.945 411.652 184.461 411.22 184.893C410.812 185.301 410.308 185.505 409.708 185.505ZM437.528 201.597C435.872 201.597 434.348 201.105 432.956 200.121C431.588 199.113 430.496 197.685 429.68 195.837C428.864 193.965 428.456 191.745 428.456 189.177C428.456 186.585 428.864 184.365 429.68 182.517C430.496 180.669 431.588 179.253 432.956 178.269C434.348 177.261 435.872 176.757 437.528 176.757C439.208 176.757 440.732 177.261 442.1 178.269C443.468 179.253 444.56 180.669 445.376 182.517C446.192 184.365 446.6 186.585 446.6 189.177C446.6 191.745 446.192 193.965 445.376 195.837C444.56 197.685 443.468 199.113 442.1 200.121C440.732 201.105 439.208 201.597 437.528 201.597ZM437.816 200.157C438.944 200.157 439.856 199.725 440.552 198.861C441.272 197.973 441.788 196.761 442.1 195.225C442.436 193.665 442.604 191.865 442.604 189.825C442.604 187.233 442.376 185.085 441.92 183.381C441.488 181.653 440.864 180.357 440.048 179.493C439.232 178.629 438.296 178.197 437.24 178.197C436.112 178.197 435.188 178.641 434.468 179.529C433.772 180.393 433.256 181.605 432.92 183.165C432.608 184.701 432.452 186.489 432.452 188.529C432.452 191.121 432.68 193.281 433.136 195.009C433.592 196.713 434.216 197.997 435.008 198.861C435.8 199.725 436.736 200.157 437.816 200.157ZM466.139 194.181H467.399L465.815 201.237H449.903C449.903 199.869 450.191 198.645 450.767 197.565C451.343 196.485 452.087 195.501 452.999 194.613C453.911 193.725 454.871 192.873 455.879 192.057C456.911 191.241 457.883 190.413 458.795 189.573C459.707 188.733 460.451 187.821 461.027 186.837C461.603 185.853 461.891 184.737 461.891 183.489C461.891 181.905 461.459 180.633 460.595 179.673C459.755 178.689 458.663 178.197 457.319 178.197C456.095 178.197 455.039 178.461 454.151 178.989C453.287 179.493 452.675 180.225 452.315 181.185L450.227 182.985C450.227 182.001 450.515 181.041 451.091 180.105C451.691 179.145 452.567 178.353 453.719 177.729C454.895 177.081 456.359 176.757 458.111 176.757C459.023 176.757 459.935 176.865 460.847 177.081C461.759 177.273 462.587 177.621 463.331 178.125C464.099 178.605 464.711 179.253 465.167 180.069C465.647 180.885 465.887 181.881 465.887 183.057C465.887 184.401 465.635 185.565 465.131 186.549C464.627 187.509 463.943 188.349 463.079 189.069C462.239 189.789 461.315 190.461 460.307 191.085C459.323 191.709 458.315 192.345 457.283 192.993C456.275 193.617 455.339 194.325 454.475 195.117C453.611 195.909 452.915 196.845 452.387 197.925H459.083C460.475 197.925 461.627 197.841 462.539 197.673C463.475 197.505 464.219 197.157 464.771 196.629C465.347 196.077 465.803 195.261 466.139 194.181ZM452.423 185.505C451.823 185.505 451.307 185.289 450.875 184.857C450.443 184.401 450.227 183.777 450.227 182.985L452.315 181.185C452.795 181.161 453.191 181.245 453.503 181.437C453.839 181.629 454.103 181.893 454.295 182.229C454.487 182.565 454.583 182.937 454.583 183.345C454.583 183.945 454.367 184.461 453.935 184.893C453.527 185.301 453.023 185.505 452.423 185.505ZM479.235 201.597C477.651 201.597 476.259 201.357 475.059 200.877C473.883 200.373 472.959 199.713 472.287 198.897C471.615 198.081 471.279 197.193 471.279 196.233L473.655 198.033C474.255 198.801 475.023 199.353 475.959 199.689C476.895 200.001 477.879 200.157 478.911 200.157C480.807 200.157 482.199 199.713 483.087 198.825C483.999 197.937 484.455 196.641 484.455 194.937C484.455 193.857 484.215 192.909 483.735 192.093C483.279 191.277 482.535 190.641 481.503 190.185C480.495 189.705 479.199 189.465 477.615 189.465V188.313C478.791 188.313 480.015 188.421 481.287 188.637C482.559 188.829 483.735 189.177 484.815 189.681C485.895 190.185 486.771 190.869 487.443 191.733C488.139 192.573 488.487 193.605 488.487 194.829C488.487 195.933 488.223 196.905 487.695 197.745C487.191 198.585 486.507 199.293 485.643 199.869C484.803 200.445 483.831 200.877 482.727 201.165C481.623 201.453 480.459 201.597 479.235 201.597ZM473.655 198.033L471.279 196.233C471.279 195.441 471.495 194.829 471.927 194.397C472.383 193.941 472.899 193.713 473.475 193.713C474.075 193.713 474.591 193.929 475.023 194.361C475.455 194.769 475.671 195.285 475.671 195.909C475.671 196.485 475.467 196.977 475.059 197.385C474.675 197.793 474.207 198.009 473.655 198.033ZM473.871 185.145C473.271 185.145 472.755 184.929 472.323 184.497C471.891 184.041 471.675 183.417 471.675 182.625L473.763 180.825C474.219 180.801 474.615 180.885 474.951 181.077C475.287 181.269 475.551 181.533 475.743 181.869C475.959 182.205 476.067 182.577 476.067 182.985C476.067 183.585 475.851 184.101 475.419 184.533C474.987 184.941 474.471 185.145 473.871 185.145ZM477.615 189.105V188.205C478.359 188.205 479.067 188.109 479.739 187.917C480.411 187.701 481.023 187.377 481.575 186.945C482.127 186.513 482.559 185.961 482.871 185.289C483.183 184.593 483.339 183.777 483.339 182.841C483.339 181.305 482.907 180.153 482.043 179.385C481.203 178.593 480.075 178.197 478.659 178.197C477.507 178.197 476.487 178.437 475.599 178.917C474.735 179.397 474.123 180.033 473.763 180.825L471.675 182.625C471.675 181.737 471.963 180.849 472.539 179.961C473.139 179.049 474.015 178.293 475.167 177.693C476.343 177.069 477.795 176.757 479.523 176.757C480.459 176.757 481.383 176.865 482.295 177.081C483.207 177.297 484.035 177.645 484.779 178.125C485.547 178.581 486.159 179.169 486.615 179.889C487.071 180.585 487.299 181.425 487.299 182.409C487.299 183.513 487.023 184.485 486.471 185.325C485.943 186.165 485.211 186.861 484.275 187.413C483.363 187.965 482.331 188.385 481.179 188.673C480.027 188.937 478.839 189.081 477.615 189.105Z" fill="#2A4B71"/>
<path d="M319.5 168.156C314.479 168.156 310.854 166.906 308.625 164.406C306.417 161.906 305.312 157.926 305.312 152.468V147.093H316.188V153.968C316.188 155.239 316.375 156.239 316.75 156.968C317.146 157.676 317.823 158.031 318.781 158.031C319.781 158.031 320.469 157.739 320.844 157.156C321.24 156.572 321.438 155.614 321.438 154.281C321.438 152.593 321.271 151.187 320.938 150.062C320.604 148.916 320.021 147.833 319.188 146.812C318.375 145.77 317.24 144.562 315.781 143.187L310.844 138.499C307.156 135.02 305.312 131.041 305.312 126.562C305.312 121.874 306.396 118.301 308.562 115.843C310.75 113.385 313.906 112.156 318.031 112.156C323.073 112.156 326.646 113.499 328.75 116.187C330.875 118.874 331.938 122.958 331.938 128.437H320.75V124.656C320.75 123.906 320.531 123.322 320.094 122.906C319.677 122.489 319.104 122.281 318.375 122.281C317.5 122.281 316.854 122.531 316.438 123.031C316.042 123.51 315.844 124.135 315.844 124.906C315.844 125.676 316.052 126.51 316.469 127.406C316.885 128.301 317.708 129.333 318.938 130.499L325.281 136.593C326.552 137.801 327.719 139.083 328.781 140.437C329.844 141.77 330.698 143.333 331.344 145.124C331.99 146.895 332.312 149.062 332.312 151.624C332.312 156.791 331.354 160.843 329.438 163.781C327.542 166.697 324.229 168.156 319.5 168.156ZM356.805 168.156C352.409 168.156 349.045 166.833 346.711 164.187C344.399 161.52 343.243 157.676 343.243 152.656V126.531C343.243 121.822 344.388 118.249 346.68 115.812C348.993 113.374 352.368 112.156 356.805 112.156C361.243 112.156 364.607 113.374 366.899 115.812C369.211 118.249 370.368 121.822 370.368 126.531V152.656C370.368 157.676 369.201 161.52 366.868 164.187C364.555 166.833 361.201 168.156 356.805 168.156ZM356.899 158.031C358.565 158.031 359.399 156.416 359.399 153.187V126.343C359.399 123.635 358.586 122.281 356.961 122.281C355.128 122.281 354.211 123.666 354.211 126.437V153.249C354.211 154.958 354.42 156.187 354.836 156.937C355.253 157.666 355.94 158.031 356.899 158.031ZM382.485 167.656V112.656H393.485V158.281H404.798V167.656H382.485ZM428.321 168.156C423.738 168.156 420.363 166.874 418.196 164.312C416.03 161.728 414.946 157.937 414.946 152.937V112.656H425.634V152.499C425.634 153.416 425.686 154.301 425.79 155.156C425.894 155.989 426.134 156.676 426.509 157.218C426.884 157.76 427.488 158.031 428.321 158.031C429.175 158.031 429.79 157.77 430.165 157.249C430.54 156.708 430.769 156.01 430.853 155.156C430.957 154.301 431.009 153.416 431.009 152.499V112.656H441.696V152.937C441.696 157.937 440.613 161.728 438.446 164.312C436.28 166.874 432.905 168.156 428.321 168.156ZM458.314 167.656V123.218H451.783V112.656H475.845V123.218H469.314V167.656H458.314ZM486.087 167.656V112.656H496.712V167.656H486.087ZM521.893 168.156C517.497 168.156 514.132 166.833 511.799 164.187C509.486 161.52 508.33 157.676 508.33 152.656V126.531C508.33 121.822 509.476 118.249 511.768 115.812C514.08 113.374 517.455 112.156 521.893 112.156C526.33 112.156 529.695 113.374 531.986 115.812C534.299 118.249 535.455 121.822 535.455 126.531V152.656C535.455 157.676 534.288 161.52 531.955 164.187C529.643 166.833 526.288 168.156 521.893 168.156ZM521.986 158.031C523.653 158.031 524.486 156.416 524.486 153.187V126.343C524.486 123.635 523.674 122.281 522.049 122.281C520.215 122.281 519.299 123.666 519.299 126.437V153.249C519.299 154.958 519.507 156.187 519.924 156.937C520.34 157.666 521.028 158.031 521.986 158.031ZM547.572 167.656V112.656H558.885L563.947 138.999V112.656H574.572V167.656H563.822L558.322 140.156V167.656H547.572ZM600.19 168.156C595.169 168.156 591.544 166.906 589.315 164.406C587.107 161.906 586.003 157.926 586.003 152.468V147.093H596.878V153.968C596.878 155.239 597.065 156.239 597.44 156.968C597.836 157.676 598.513 158.031 599.471 158.031C600.471 158.031 601.159 157.739 601.534 157.156C601.93 156.572 602.128 155.614 602.128 154.281C602.128 152.593 601.961 151.187 601.628 150.062C601.294 148.916 600.711 147.833 599.878 146.812C599.065 145.77 597.93 144.562 596.471 143.187L591.534 138.499C587.846 135.02 586.003 131.041 586.003 126.562C586.003 121.874 587.086 118.301 589.253 115.843C591.44 113.385 594.596 112.156 598.721 112.156C603.763 112.156 607.336 113.499 609.44 116.187C611.565 118.874 612.628 122.958 612.628 128.437H601.44V124.656C601.44 123.906 601.221 123.322 600.784 122.906C600.367 122.489 599.794 122.281 599.065 122.281C598.19 122.281 597.544 122.531 597.128 123.031C596.732 123.51 596.534 124.135 596.534 124.906C596.534 125.676 596.742 126.51 597.159 127.406C597.575 128.301 598.398 129.333 599.628 130.499L605.971 136.593C607.242 137.801 608.409 139.083 609.471 140.437C610.534 141.77 611.388 143.333 612.034 145.124C612.68 146.895 613.003 149.062 613.003 151.624C613.003 156.791 612.044 160.843 610.128 163.781C608.232 166.697 604.919 168.156 600.19 168.156Z" fill="#2A4B71"/>
<path d="M306.438 107V52H317.375V71.6562H322.562V52H333.5V107H322.562V82.0625H317.375V107H306.438ZM357.494 107.5C352.91 107.5 349.535 106.219 347.369 103.656C345.202 101.073 344.119 97.2812 344.119 92.2812V52H354.806V91.8438C354.806 92.7604 354.858 93.6458 354.963 94.5C355.067 95.3333 355.306 96.0208 355.681 96.5625C356.056 97.1042 356.66 97.375 357.494 97.375C358.348 97.375 358.963 97.1146 359.338 96.5938C359.713 96.0521 359.942 95.3542 360.025 94.5C360.129 93.6458 360.181 92.7604 360.181 91.8438V52H370.869V92.2812C370.869 97.2812 369.785 101.073 367.619 103.656C365.452 106.219 362.077 107.5 357.494 107.5ZM381.488 107V52H398.363C401.175 52 403.3 52.6458 404.738 53.9375C406.175 55.2083 407.133 57 407.613 59.3125C408.113 61.6042 408.363 64.3021 408.363 67.4062C408.363 70.4062 407.977 72.8021 407.206 74.5938C406.456 76.3854 405.029 77.625 402.925 78.3125C404.654 78.6667 405.863 79.5312 406.55 80.9062C407.258 82.2604 407.613 84.0208 407.613 86.1875V107H396.769V85.4688C396.769 83.8646 396.435 82.875 395.769 82.5C395.123 82.1042 394.071 81.9062 392.613 81.9062V107H381.488ZM392.675 72.375H395.331C396.852 72.375 397.613 70.7188 397.613 67.4062C397.613 65.2604 397.446 63.8542 397.113 63.1875C396.779 62.5208 396.154 62.1875 395.238 62.1875H392.675V72.375ZM418.387 107V52H435.262C438.075 52 440.2 52.6458 441.637 53.9375C443.075 55.2083 444.033 57 444.512 59.3125C445.012 61.6042 445.262 64.3021 445.262 67.4062C445.262 70.4062 444.877 72.8021 444.106 74.5938C443.356 76.3854 441.929 77.625 439.825 78.3125C441.554 78.6667 442.762 79.5312 443.45 80.9062C444.158 82.2604 444.512 84.0208 444.512 86.1875V107H433.669V85.4688C433.669 83.8646 433.335 82.875 432.669 82.5C432.023 82.1042 430.971 81.9062 429.512 81.9062V107H418.387ZM429.575 72.375H432.231C433.752 72.375 434.512 70.7188 434.512 67.4062C434.512 65.2604 434.346 63.8542 434.012 63.1875C433.679 62.5208 433.054 62.1875 432.137 62.1875H429.575V72.375ZM454.788 107V52H465.413V107H454.788ZM489 107.5C485.021 107.5 481.812 106.26 479.375 103.781C476.958 101.302 475.75 97.8333 475.75 93.375V68C475.75 62.6667 476.802 58.5833 478.906 55.75C481.031 52.9167 484.479 51.5 489.25 51.5C491.854 51.5 494.167 51.9792 496.188 52.9375C498.229 53.8958 499.833 55.3333 501 57.25C502.167 59.1458 502.75 61.5417 502.75 64.4375V73.9375H491.812V65.8125C491.812 64.1667 491.604 63.0625 491.188 62.5C490.771 61.9167 490.125 61.625 489.25 61.625C488.229 61.625 487.542 62 487.188 62.75C486.833 63.4792 486.656 64.4583 486.656 65.6875V93.2188C486.656 94.7396 486.875 95.8125 487.312 96.4375C487.771 97.0625 488.417 97.375 489.25 97.375C490.188 97.375 490.844 96.9896 491.219 96.2188C491.615 95.4479 491.812 94.4479 491.812 93.2188V83.3125H502.875V93.7188C502.875 98.5521 501.656 102.062 499.219 104.25C496.781 106.417 493.375 107.5 489 107.5ZM511.462 107L516.775 52H535.431L540.65 107H530.244L529.462 98.125H522.837L522.15 107H511.462ZM523.619 89.3438H528.619L526.212 61.375H525.712L523.619 89.3438ZM550.425 107V52H561.738L566.8 78.3438V52H577.425V107H566.675L561.175 79.5V107H550.425ZM588.7 107V52H610.7V62.625H599.888V73.3438H610.263V83.6875H599.888V96.2812H611.419V107H588.7Z" fill="#3EB3FF"/>
</svg>
