<svg width="718" height="238" viewBox="0 0 718 238" fill="none" xmlns="http://www.w3.org/2000/svg">
<path fill-rule="evenodd" clip-rule="evenodd" d="M52 123L144.5 55L239 123C239 123 233.716 140.639 229 151.5C224.016 162.979 219.02 168.69 211.047 177.803C210.704 178.195 210.355 178.594 210 179C200.076 190.356 193.361 195.861 181 204.5C167.754 213.758 144.5 222.5 144.5 222.5C144.5 222.5 122.942 213.415 110.5 204.5C98.2414 195.716 91.257 190.499 81.5 179C73.1957 169.213 69.3552 162.922 63.5 151.5C57.8595 140.497 52 123 52 123ZM115 111H140V136H115V111ZM173 111H148V136H173V111ZM115 145H140V170H115V145ZM173 145H148V170H173V145Z" fill="#3EB3FF"/>
<path d="M0 125L144.5 17L291.5 125L278 143L144.5 47L13.5 143L0 125Z" fill="#2A4B71"/>
<path fill-rule="evenodd" clip-rule="evenodd" d="M55 66.5754L2 106L8 114L55 78.8791V66.5754ZM87 42.7719V54.967L144.5 12L285.5 114L291.5 106L144.5 0L87 42.7719Z" fill="#2A4B71"/>
<path d="M40 121C45.0768 135.254 46.1413 144.012 53 157.5C60.9327 173.1 66.4829 181.769 79 194C90.121 204.867 98.1177 209.083 111.5 217C124.051 224.425 145 233.5 145 233.5C145 233.5 167.692 224.201 181 216C194.166 207.886 201.505 202.875 212.5 192C223.58 181.041 229.414 174.113 237 160.5C245.178 145.826 248.506 136.53 251.5 120" stroke="#2A4B71" stroke-width="8"/>
<rect x="60" y="25" width="22" height="61" fill="#2A4B71"/>
<path d="M317.156 128V83.5625H310.625V73H334.688V83.5625H328.156V128H317.156ZM343.65 128V73H354.275V128H343.65ZM365.05 128V73H387.05V83.625H376.237V94.3438H386.612V104.688H376.237V117.281H387.769V128H365.05ZM397.825 128V73H412.95C416.908 73 419.887 74.1042 421.887 76.3125C423.887 78.5 424.887 81.7083 424.887 85.9375V111.688C424.887 116.896 423.971 120.917 422.137 123.75C420.325 126.583 417.137 128 412.575 128H397.825ZM408.887 118.281H410.794C412.815 118.281 413.825 117.302 413.825 115.344V86.9688C413.825 85.1354 413.575 83.9583 413.075 83.4375C412.596 82.8958 411.606 82.625 410.106 82.625H408.887V118.281ZM448.912 128.5C444.517 128.5 441.152 127.177 438.819 124.531C436.506 121.865 435.35 118.021 435.35 113V86.875C435.35 82.1667 436.496 78.5938 438.787 76.1562C441.1 73.7188 444.475 72.5 448.912 72.5C453.35 72.5 456.715 73.7188 459.006 76.1562C461.319 78.5938 462.475 82.1667 462.475 86.875V113C462.475 118.021 461.308 121.865 458.975 124.531C456.662 127.177 453.308 128.5 448.912 128.5ZM449.006 118.375C450.673 118.375 451.506 116.76 451.506 113.531V86.6875C451.506 83.9792 450.694 82.625 449.069 82.625C447.235 82.625 446.319 84.0104 446.319 86.7812V113.594C446.319 115.302 446.527 116.531 446.944 117.281C447.36 118.01 448.048 118.375 449.006 118.375ZM477.625 128L471.719 73H482.469L485.5 107.719L488.594 73H498.844L501.781 107.719L504.719 73H515.594L509.594 128H496.406L493.656 101.531L491.031 128H477.625ZM525.275 128V73H536.587L541.65 99.3438V73H552.275V128H541.525L536.025 100.5V128H525.275ZM563.55 128V73H574.488V92.6562H579.675V73H590.613V128H579.675V103.062H574.488V128H563.55ZM615.013 128.5C610.617 128.5 607.252 127.177 604.919 124.531C602.606 121.865 601.45 118.021 601.45 113V86.875C601.45 82.1667 602.596 78.5938 604.888 76.1562C607.2 73.7188 610.575 72.5 615.013 72.5C619.45 72.5 622.815 73.7188 625.106 76.1562C627.419 78.5938 628.575 82.1667 628.575 86.875V113C628.575 118.021 627.408 121.865 625.075 124.531C622.763 127.177 619.408 128.5 615.013 128.5ZM615.106 118.375C616.773 118.375 617.606 116.76 617.606 113.531V86.6875C617.606 83.9792 616.794 82.625 615.169 82.625C613.335 82.625 612.419 84.0104 612.419 86.7812V113.594C612.419 115.302 612.627 116.531 613.044 117.281C613.46 118.01 614.148 118.375 615.106 118.375ZM639.413 128V73H656.163L660.788 106.531L665.381 73H682.288V128H672.225V88.375L665.913 128H656.038L649.35 88.375V128H639.413ZM693.562 128V73H715.562V83.625H704.75V94.3438H715.125V104.688H704.75V117.281H716.281V128H693.562Z" fill="#2A4B71"/>
<path d="M316.156 151.92C316.156 152.76 316.396 153.468 316.876 154.044C317.356 154.62 318.004 155.1 318.82 155.484C319.636 155.868 320.524 156.228 321.484 156.564C322.444 156.9 323.392 157.272 324.328 157.68C325.288 158.064 326.176 158.544 326.992 159.12C327.808 159.672 328.456 160.38 328.936 161.244C329.416 162.084 329.656 163.14 329.656 164.412C329.656 165.876 329.308 167.124 328.612 168.156C327.916 169.188 326.956 169.98 325.732 170.532C324.508 171.084 323.08 171.36 321.448 171.36C320.248 171.36 319.132 171.204 318.1 170.892C317.092 170.556 316.156 170.124 315.292 169.596L314.572 170.964H313.312C313.264 170.148 313.168 169.284 313.024 168.372C312.88 167.436 312.724 166.512 312.556 165.6C312.388 164.688 312.22 163.86 312.052 163.116L313.24 162.756C314.008 164.58 314.884 166.02 315.868 167.076C316.852 168.108 317.848 168.84 318.856 169.272C319.864 169.704 320.8 169.92 321.664 169.92C322.408 169.92 323.164 169.776 323.932 169.488C324.7 169.2 325.336 168.756 325.84 168.156C326.368 167.532 326.632 166.74 326.632 165.78C326.632 164.844 326.392 164.076 325.912 163.476C325.432 162.852 324.784 162.324 323.968 161.892C323.152 161.436 322.264 161.04 321.304 160.704C320.368 160.344 319.42 159.972 318.46 159.588C317.5 159.18 316.612 158.712 315.796 158.184C315.004 157.656 314.356 156.996 313.852 156.204C313.372 155.412 313.132 154.428 313.132 153.252C313.132 151.86 313.48 150.66 314.176 149.652C314.872 148.644 315.82 147.876 317.02 147.348C318.22 146.796 319.576 146.52 321.088 146.52C322.12 146.52 323.056 146.676 323.896 146.988C324.736 147.276 325.564 147.708 326.38 148.284L327.1 146.88H328.36C328.456 148.104 328.6 149.328 328.792 150.552C329.008 151.752 329.236 152.916 329.476 154.044L328.288 154.404C327.664 152.604 326.908 151.248 326.02 150.336C325.132 149.424 324.232 148.8 323.32 148.464C322.408 148.128 321.58 147.96 320.836 147.96C319.468 147.96 318.34 148.332 317.452 149.076C316.588 149.796 316.156 150.744 316.156 151.92ZM333.059 171V169.74H335.543L335.759 169.524V155.772L335.543 155.52H333.059V154.26C333.683 154.26 334.331 154.26 335.003 154.26C335.675 154.236 336.347 154.212 337.019 154.188C337.691 154.164 338.339 154.116 338.963 154.044L339.179 154.26V169.524L339.395 169.74H341.879V171H333.059ZM337.307 150.732C336.731 150.732 336.215 150.516 335.759 150.084C335.303 149.628 335.075 149.1 335.075 148.5C335.075 147.876 335.303 147.348 335.759 146.916C336.215 146.484 336.731 146.268 337.307 146.268C337.931 146.268 338.459 146.484 338.891 146.916C339.323 147.348 339.539 147.876 339.539 148.5C339.539 149.1 339.323 149.628 338.891 150.084C338.459 150.516 337.931 150.732 337.307 150.732ZM362.302 169.524L362.518 169.74H365.038V171H356.182V169.74H358.666L358.882 169.524V159.228C358.882 158.052 358.678 157.164 358.27 156.564C357.862 155.94 357.154 155.628 356.146 155.628C355.21 155.628 354.31 155.952 353.446 156.6C352.582 157.248 351.682 158.364 350.746 159.948V169.524L350.962 169.74H353.446V171H344.626V169.74H347.11L347.326 169.524V155.772L347.11 155.52H344.626V154.26C345.25 154.26 345.874 154.26 346.498 154.26C347.146 154.236 347.782 154.212 348.406 154.188C349.054 154.164 349.69 154.116 350.314 154.044L350.53 154.26V157.608H350.746C351.418 156.528 352.258 155.64 353.266 154.944C354.298 154.248 355.606 153.9 357.19 153.9C358.462 153.9 359.47 154.116 360.214 154.548C360.958 154.956 361.486 155.52 361.798 156.24C362.134 156.936 362.302 157.716 362.302 158.58V169.524ZM376.507 171.36C374.947 171.36 373.519 171.012 372.223 170.316C370.951 169.62 369.931 168.624 369.163 167.328C368.419 166.032 368.047 164.508 368.047 162.756C368.047 160.884 368.455 159.3 369.271 158.004C370.087 156.684 371.179 155.676 372.547 154.98C373.915 154.26 375.403 153.9 377.011 153.9C378.163 153.9 379.219 154.104 380.179 154.512C381.139 154.896 381.907 155.436 382.483 156.132C383.059 156.804 383.347 157.584 383.347 158.472C383.347 159.12 383.155 159.636 382.771 160.02C382.411 160.404 381.955 160.596 381.403 160.596C380.875 160.596 380.407 160.416 379.999 160.056C379.615 159.672 379.423 159.204 379.423 158.652C379.423 158.244 379.543 157.86 379.783 157.5C380.023 157.14 380.455 156.888 381.079 156.744C380.599 156.24 380.011 155.856 379.315 155.592C378.643 155.304 377.875 155.16 377.011 155.16C375.739 155.16 374.719 155.484 373.951 156.132C373.207 156.756 372.655 157.62 372.295 158.724C371.935 159.828 371.755 161.064 371.755 162.432C371.755 163.992 371.983 165.324 372.439 166.428C372.919 167.532 373.567 168.384 374.383 168.984C375.199 169.56 376.111 169.848 377.119 169.848C378.151 169.848 379.123 169.548 380.035 168.948C380.947 168.348 381.787 167.532 382.555 166.5L383.527 167.328C382.951 168.12 382.327 168.816 381.655 169.416C381.007 170.016 380.263 170.496 379.423 170.856C378.583 171.192 377.611 171.36 376.507 171.36ZM395.403 169.848C396.651 169.848 397.719 169.56 398.607 168.984C399.519 168.408 400.299 167.772 400.947 167.076L401.919 167.904C401.415 168.504 400.839 169.068 400.191 169.596C399.567 170.124 398.811 170.556 397.923 170.892C397.035 171.204 395.955 171.36 394.683 171.36C393.171 171.36 391.767 171.012 390.471 170.316C389.199 169.62 388.167 168.624 387.375 167.328C386.607 166.008 386.223 164.448 386.223 162.648C386.223 160.848 386.607 159.3 387.375 158.004C388.167 156.684 389.199 155.676 390.471 154.98C391.767 154.26 393.171 153.9 394.683 153.9C396.195 153.9 397.503 154.2 398.607 154.8C399.711 155.376 400.563 156.264 401.163 157.464C401.787 158.664 402.099 160.176 402.099 162H389.463V160.74H398.175C398.079 158.94 397.743 157.56 397.167 156.6C396.615 155.64 395.715 155.16 394.467 155.16C393.411 155.16 392.547 155.484 391.875 156.132C391.227 156.756 390.735 157.632 390.399 158.76C390.087 159.888 389.931 161.184 389.931 162.648C389.931 164.088 390.171 165.348 390.651 166.428C391.155 167.508 391.815 168.348 392.631 168.948C393.471 169.548 394.395 169.848 395.403 169.848ZM429.424 163.944H430.684L429.1 171H413.188C413.188 169.632 413.476 168.408 414.052 167.328C414.628 166.248 415.372 165.264 416.284 164.376C417.196 163.488 418.156 162.636 419.164 161.82C420.196 161.004 421.168 160.176 422.08 159.336C422.992 158.496 423.736 157.584 424.312 156.6C424.888 155.616 425.176 154.5 425.176 153.252C425.176 151.668 424.744 150.396 423.88 149.436C423.04 148.452 421.948 147.96 420.604 147.96C419.38 147.96 418.324 148.224 417.436 148.752C416.572 149.256 415.96 149.988 415.6 150.948L413.512 152.748C413.512 151.764 413.8 150.804 414.376 149.868C414.976 148.908 415.852 148.116 417.004 147.492C418.18 146.844 419.644 146.52 421.396 146.52C422.308 146.52 423.22 146.628 424.132 146.844C425.044 147.036 425.872 147.384 426.616 147.888C427.384 148.368 427.996 149.016 428.452 149.832C428.932 150.648 429.172 151.644 429.172 152.82C429.172 154.164 428.92 155.328 428.416 156.312C427.912 157.272 427.228 158.112 426.364 158.832C425.524 159.552 424.6 160.224 423.592 160.848C422.608 161.472 421.6 162.108 420.568 162.756C419.56 163.38 418.624 164.088 417.76 164.88C416.896 165.672 416.2 166.608 415.672 167.688H422.368C423.76 167.688 424.912 167.604 425.824 167.436C426.76 167.268 427.504 166.92 428.056 166.392C428.632 165.84 429.088 165.024 429.424 163.944ZM415.708 155.268C415.108 155.268 414.592 155.052 414.16 154.62C413.728 154.164 413.512 153.54 413.512 152.748L415.6 150.948C416.08 150.924 416.476 151.008 416.788 151.2C417.124 151.392 417.388 151.656 417.58 151.992C417.772 152.328 417.868 152.7 417.868 153.108C417.868 153.708 417.652 154.224 417.22 154.656C416.812 155.064 416.308 155.268 415.708 155.268ZM443.528 171.36C441.872 171.36 440.348 170.868 438.956 169.884C437.588 168.876 436.496 167.448 435.68 165.6C434.864 163.728 434.456 161.508 434.456 158.94C434.456 156.348 434.864 154.128 435.68 152.28C436.496 150.432 437.588 149.016 438.956 148.032C440.348 147.024 441.872 146.52 443.528 146.52C445.208 146.52 446.732 147.024 448.1 148.032C449.468 149.016 450.56 150.432 451.376 152.28C452.192 154.128 452.6 156.348 452.6 158.94C452.6 161.508 452.192 163.728 451.376 165.6C450.56 167.448 449.468 168.876 448.1 169.884C446.732 170.868 445.208 171.36 443.528 171.36ZM443.816 169.92C444.944 169.92 445.856 169.488 446.552 168.624C447.272 167.736 447.788 166.524 448.1 164.988C448.436 163.428 448.604 161.628 448.604 159.588C448.604 156.996 448.376 154.848 447.92 153.144C447.488 151.416 446.864 150.12 446.048 149.256C445.232 148.392 444.296 147.96 443.24 147.96C442.112 147.96 441.188 148.404 440.468 149.292C439.772 150.156 439.256 151.368 438.92 152.928C438.608 154.464 438.452 156.252 438.452 158.292C438.452 160.884 438.68 163.044 439.136 164.772C439.592 166.476 440.216 167.76 441.008 168.624C441.8 169.488 442.736 169.92 443.816 169.92ZM472.139 163.944H473.399L471.815 171H455.903C455.903 169.632 456.191 168.408 456.767 167.328C457.343 166.248 458.087 165.264 458.999 164.376C459.911 163.488 460.871 162.636 461.879 161.82C462.911 161.004 463.883 160.176 464.795 159.336C465.707 158.496 466.451 157.584 467.027 156.6C467.603 155.616 467.891 154.5 467.891 153.252C467.891 151.668 467.459 150.396 466.595 149.436C465.755 148.452 464.663 147.96 463.319 147.96C462.095 147.96 461.039 148.224 460.151 148.752C459.287 149.256 458.675 149.988 458.315 150.948L456.227 152.748C456.227 151.764 456.515 150.804 457.091 149.868C457.691 148.908 458.567 148.116 459.719 147.492C460.895 146.844 462.359 146.52 464.111 146.52C465.023 146.52 465.935 146.628 466.847 146.844C467.759 147.036 468.587 147.384 469.331 147.888C470.099 148.368 470.711 149.016 471.167 149.832C471.647 150.648 471.887 151.644 471.887 152.82C471.887 154.164 471.635 155.328 471.131 156.312C470.627 157.272 469.943 158.112 469.079 158.832C468.239 159.552 467.315 160.224 466.307 160.848C465.323 161.472 464.315 162.108 463.283 162.756C462.275 163.38 461.339 164.088 460.475 164.88C459.611 165.672 458.915 166.608 458.387 167.688H465.083C466.475 167.688 467.627 167.604 468.539 167.436C469.475 167.268 470.219 166.92 470.771 166.392C471.347 165.84 471.803 165.024 472.139 163.944ZM458.423 155.268C457.823 155.268 457.307 155.052 456.875 154.62C456.443 154.164 456.227 153.54 456.227 152.748L458.315 150.948C458.795 150.924 459.191 151.008 459.503 151.2C459.839 151.392 460.103 151.656 460.295 151.992C460.487 152.328 460.583 152.7 460.583 153.108C460.583 153.708 460.367 154.224 459.935 154.656C459.527 155.064 459.023 155.268 458.423 155.268ZM493.479 163.944H494.739L493.155 171H477.243C477.243 169.632 477.531 168.408 478.107 167.328C478.683 166.248 479.427 165.264 480.339 164.376C481.251 163.488 482.211 162.636 483.219 161.82C484.251 161.004 485.223 160.176 486.135 159.336C487.047 158.496 487.791 157.584 488.367 156.6C488.943 155.616 489.231 154.5 489.231 153.252C489.231 151.668 488.799 150.396 487.935 149.436C487.095 148.452 486.003 147.96 484.659 147.96C483.435 147.96 482.379 148.224 481.491 148.752C480.627 149.256 480.015 149.988 479.655 150.948L477.567 152.748C477.567 151.764 477.855 150.804 478.431 149.868C479.031 148.908 479.907 148.116 481.059 147.492C482.235 146.844 483.699 146.52 485.451 146.52C486.363 146.52 487.275 146.628 488.187 146.844C489.099 147.036 489.927 147.384 490.671 147.888C491.439 148.368 492.051 149.016 492.507 149.832C492.987 150.648 493.227 151.644 493.227 152.82C493.227 154.164 492.975 155.328 492.471 156.312C491.967 157.272 491.283 158.112 490.419 158.832C489.579 159.552 488.655 160.224 487.647 160.848C486.663 161.472 485.655 162.108 484.623 162.756C483.615 163.38 482.679 164.088 481.815 164.88C480.951 165.672 480.255 166.608 479.727 167.688H486.423C487.815 167.688 488.967 167.604 489.879 167.436C490.815 167.268 491.559 166.92 492.111 166.392C492.687 165.84 493.143 165.024 493.479 163.944ZM479.763 155.268C479.163 155.268 478.647 155.052 478.215 154.62C477.783 154.164 477.567 153.54 477.567 152.748L479.655 150.948C480.135 150.924 480.531 151.008 480.843 151.2C481.179 151.392 481.443 151.656 481.635 151.992C481.827 152.328 481.923 152.7 481.923 153.108C481.923 153.708 481.707 154.224 481.275 154.656C480.867 155.064 480.363 155.268 479.763 155.268Z" fill="#2A4B71"/>
</svg>
