<svg width="512" height="512" viewBox="0 0 512 512" fill="none" xmlns="http://www.w3.org/2000/svg">
<g clip-path="url(#clip0_428_122)">
<path d="M486.5 124H493.25L497.25 125L501.5 127L504.5 129.25L507 131.75L509.5 135.5L511.25 139.75L511.75 141H512V277L511.5 277.25L510.25 283.75L508.5 290L506 296.5L503.5 301.25L500.5 306.25L495.5 313.75L492.75 317.75L486.75 326.25L483.5 330.5L480 335L477.75 338L474.25 342.25L471.5 345.5L469.5 348L467.25 350.5L465 353.25L463.25 355L461 357.75L458.25 360.5L456.5 362.5L453.5 365.5L453.25 366H452.75L452.25 367L447.25 372L445.25 373.75L439.75 379.25L437.75 381L434.75 383.75L432.25 386L428.5 389.5L426.25 392L424 395L421.5 398.75L419.5 402.5L417.25 408.25L415.75 413.5L415 417.5L414.5 422.75L414.25 432.5H416.75L421.25 433.5L424.75 435L427.75 437L430.25 439.25L432 441L434.5 445L436 448.75L436.75 452.5V491.75L436 495.5L435 498.5L433.5 501.25L431.5 504L428.5 507L425 509.25L421.75 510.75L418 512H296.5L291.25 510.25L288 508.5L284.25 505.5V505H283.75L281 501.5L279 497.75L277.75 493L277.5 491V453L278.25 449L280.25 444.25L282.75 440.75L283.5 439.75H284L284.5 438.75L287 436.75L290.25 434.75L293.5 433.5L295.75 408.75L297.75 386.25L299.75 364.75L301 356.75L302.75 350.25L304.75 345L308.25 337.75L310.75 333.5L314.75 327.5L317.5 324L320.25 320.75L324.75 315.75L326.25 314.5L327.5 313.25L331 310L334.5 307.25L339 303.75L345.5 299.5L352.5 295.5L362.5 290.5L367.25 287.5L370.25 285.25L373.5 282.5L375.25 280.75L377 279.25L378.25 277.75L380 276.25L381.25 274.75L382.75 273.5L384.25 271.75L385.75 270.5L387.25 268.75L388.75 267.5L390.25 265.75L391.75 264.5L393.25 262.75L394.75 261.5L396.25 259.75L397.75 258.5L399.25 256.75L400.75 255.5L402.25 253.75L403.75 252.5L405.25 250.75L406.75 249.5L408.25 247.75L409.75 246.5L411.25 244.75L413.25 243L415.5 240.75L420 237.5L424 235.25L429 233.25L432.5 232.25L437.25 231.5H446.25L446.5 225L449.25 166L449.75 160.25L451 154.5L452.75 149.75L454.75 145.75L456.5 142.75L459.5 138.75L461.25 136.75H461.75L462.25 135.75L464.25 134L467.75 131.25L471.75 128.75L476.5 126.5L480.25 125.25L484.5 124.25L486.5 124ZM487.5 140.25L482.75 141.5L478.75 143.5L476 145.25L472.5 148.5L470.5 151L468 155.25L466.5 159.5L465.75 163.75L464.75 183.5L462.75 226.5L462.5 232.25V237.25L466.5 240.25L470 243.25L472.25 246L474.25 249.5L475.75 253.5L476.25 256L476.5 260L475.75 264.75L474.5 268.5L472.5 272L470.75 274.25L468.5 276.75L384.5 360.75L382 362.5L379.5 363.25H377.25L374.5 362.25L372.75 361L371.25 358.75L370.5 356.75V354L371.5 351.25L373.75 348.75L458.75 263.75L460 261.75L460.25 260.75V257.75L459.25 255.5L457.5 253.5L454.5 251.25L450.5 249.25L446.5 248L445 247.75H438.5L434 248.75L430 250.5L427 252.5L424.5 254.75L424 255V255.5H423.5V256H423V256.5H422.5V257H422L420.5 258.75L419 260L417.5 261.75L416 263L414.25 265L386.5 292.75L384.5 294.5L381.75 297L378.5 299.5L374.5 302.25L370.75 304.5L362.5 308.75L358.5 310.75L352.75 314.25L349.75 316.25L346.5 318.5L342.5 321.75L340.5 323.5L338 325.75L336.25 327.25L334.5 329.25L332.25 331.5L329.5 335L328 337L325.75 340.25L323.75 343.5L322 346.5L319.25 352.5L317.75 357L316.75 361.25L316 365.75L314.25 385L313 398.25L312.25 407.25L310.25 429.5L310 432.25L352.75 432.5H397.75L398 430.75L398.25 420.25L399.25 412.5L400.75 406.25L402.75 400.25L405 395.25L407.75 390L410.75 385.5L413.25 382.25L416.25 378.75L420.5 374.5L423.25 372.25L426 369.5L428 367.75L431.25 364.75L436.5 359.5L437 359.25V358.75H437.5V358.25H438V357.75L439 357.25V356.75L440 356.25V355.75H440.5L442.25 353.75L444.5 351.5L446.25 349.5L448.5 347.25V346.75H449L450.75 344.75L453 342.25L455.25 339.5L458 336.5L460 334L462.25 331.25L465 328L465.5 326.75H466L469.5 322L473 317.5L476 313.25L479.25 308.75L485.75 299L488 295.5L490.25 291.5L492.5 286.5L494 281.75L495 277.25L495.75 270.75V144.75L494.5 142.25L492.75 140.75L491.5 140.25H487.5ZM298.75 448.75L297 449.5L295 451.25L294 453.25L293.75 454.75V490.25L294.5 492.5L296.25 494.5L298.25 495.5L299.25 495.75H415L417.75 494.75L419.75 492.75L420.5 490.25V453.75L419.5 451.5L418.25 450L415.75 448.75H298.75Z" fill="black"/>
<path d="M18.75 124H25.5L30.75 125L36 126.75L40.25 128.75L43.75 131L46.75 133.25L49.25 135.5L52.5 138.75L55.5 142.75L58.5 148L60 151.5L61.25 155.75L62 159.25L62.5 163.75L65.5 226.75V231.5L69.75 231.25L74.5 231.5L79.25 232.25L83.5 233.5L87.25 235L91.5 237.25L95 239.75L97.75 242L137.25 281.5L139.25 283.25L142.5 286L145.75 288.25L149.5 290.5L153.25 292.5L159 295.25L164.75 298.5L169.5 301.5L174.5 305L177.75 307.5L181 310.25L184.5 313.25L190.5 319.25V319.75H191L193.25 322.5L195.75 325.5L199 330L202.25 335.25L204 338.25L206.75 344L208.75 349L210.25 354L211.5 360L212.5 368L217.5 423.75L218.25 432.5L218.5 433.5L222.5 435.25L225.5 437.25L228 439.5L230.25 442L232.25 445.5L233.5 448.5L234.25 451.75L234.5 454.75V489.25L234 494L232.75 498L231 501.5L229.25 503.75L227 506.25L223.5 508.75L220 510.5L215.5 512H93L92.75 511.5L88.25 510L84.5 507.75L81.5 505L79.5 502.75L77.5 499.5L76 496L75.25 492.5L75 488.5V454.75L75.5 450.75L76.25 447.75L78.25 443.5L80.5 440.5L82.5 438.25L85.75 435.75L89.25 434L93.5 432.75L95.25 432.5H97.75L97.5 424L97 417.75L96 412.75L95 409L93 403.75L90 398L87.5 394.25L84.25 390.25L80.25 386.25L78.25 384.5L75.75 382.25L72.5 379.25L68.75 375.75L63.25 370.25L61.25 368.5V368L60.5 367.75L58.75 365.75L55.5 362.5V362H55L53.25 360L51 357.75L49.25 355.75L46.25 352.25L43.25 349L40.5 345.5L37.25 341.75L35.25 339.25L31.75 334.75L28.5 330.5L26 327.25L23 323L19.75 318.5L10.75 305L8.5 301.25L6.5 297.5L4 291.5L2.25 286L0 275.5V141.5L0.75 139.5L2 136.25L4.5 132.25L6.75 129.75L10 127.25L14 125.25L17.25 124.25L18.75 124ZM20.25 140.25L17.75 141.75L16.75 143.5L16.25 144.75V272L17 277.75L18.5 283.75L20.5 289L23 294L26 298.75L33.25 309.5L36.5 314L38.5 316.75L41.5 320.75L45.5 326L48.75 330L53.25 335.5L56 338.75L58.25 341.25L60 343.25L62.25 345.75L64 347.75L67 351L69.25 353.25L69.5 353.75H70L70.5 354.75L79.5 363.75H80V364.25L82 366L83.75 367.75L85.75 369.5L89 372.5L91.5 374.75L95.25 378.25L97.75 381L100.5 384.5L104 389.75L106.5 394.25L108.25 398L110.25 403.25L112 409.5L113 414.5L113.5 418.5L113.75 422.25L114 432.5H144.75L201.75 432.25L201.5 427.5L196.75 374.25L195.5 362.75L194.25 357L192.5 352L189 344.75L186.5 340.5L183.5 336.25L180.25 332.25L178 329.75L177.5 329H177L176.5 328L174.5 326L172.5 324.25L170 322L166.5 319.25L163 316.75L159.25 314.25L156 312.25L150.5 309.25L144.5 306.25L139 303.25L134.5 300.25L131 297.5L128.25 295L124.25 291.5L123 290L121.25 288.5L120 287L119 286H118.5V285.5H118V285L116.25 283.5L115 282L114 281H113.5L113 280H112.5V279.5H112V279L110.25 277.5L110 277H109.5V276.5H109V276L108 275H107.5V274.5H107V274L105.25 272.5L104 271H103.5V270.5H103V270H102.5V269.5H102V269H101.5V268.5H101V268L100 267H99.5V266.5H99V266L98 265H97.5V264.5H97V264L95.25 262.5L94 261L93 260H92.5L92 259H91.5L91 258L88 255L85.25 252.75L82.75 251L79.25 249.25L75 248L73.5 247.75H67L62.75 248.75L59.75 250L56.75 251.75L54.25 253.75L52.5 255.75L51.75 257.5L51.5 259.5L52 261.75L53 263.25L55.25 265.75L139.5 350L141 352.5L141.5 354V356.5L140.5 359.25L138.75 361.5L136.5 362.75L134.5 363.25H132.5L130 362.5L127.25 360.5L42.25 275.5L40 272.75L38.25 270L37 267.25L36 264L35.5 260.75V257.75L36.25 253.25L37.75 249.25L39.75 246L42.5 242.75L45.25 240.25L48.5 238L49.5 237.25V233.75L46.75 174L46.25 164.5L45.5 159.75L44.25 156L42 151.75L39.5 148.5L37 146L33 143.25L29.5 141.5L26.25 140.5L25 140.25H20.25ZM96.5 448.75L94.5 449.5L92.75 451L91.75 452.75L91.5 453.75V491L92.5 493L93.75 494.25L95.25 495.25L97 495.75H212.5L215 495L217 493.25L218 491L218.25 486.75V455L217.5 452L215.5 449.75L213.25 448.75H96.5Z" fill="black"/>
<path d="M237.5 0H274.25L276.75 1.5L278.5 3.25L279.75 6L281 12.75L282.5 17.25L284.5 20.75L286.5 23.25L288.75 25.5L292.5 28L296.75 30L304 33L308 34.5L311.5 35.25L313.25 35.5H317.25L321.25 34.75L324.75 33.5L328.5 31.5L332.75 28.25L334.75 27.25L336 27H338.75L341.25 28L343.25 29.5L366 52.25L367.5 54.75L368 56.5V58.75L367 61.5L363.75 66L361.75 69.5L360.25 73.25L359.5 77V82.25L360.25 86L362 91L365.5 99.5L367.5 103.5L369.75 106.5L370.5 107.25V107.75H371L372.25 109L375.25 111.25L379 113L383.25 114.25L389 115.25L391.25 116.25L393.25 118L394.5 120L395 121.75V156.25L394 159L392.5 161L390.75 162L387.5 163L381.75 164L378 165.25L374.25 167.25L370.75 170.25L368.5 173L366.25 176.75L361.75 187.5L360.25 191.75L359.5 196V201L360.5 205.5L362.25 209.5L364.5 213L367 216.5L368 219V221.5L367 224.25L365 226.75L343.25 248.5H342.75V249L340.5 250.25L339.25 250.75H335.25L332.25 249.25L329.75 247.25L326.5 245.25L322.75 243.5L320 242.75L318.25 242.5H312.25L307.75 243.5L299.5 246.75L294.25 249L290.25 251.25L286.75 254.25L284.25 257.5L282.25 261.25L280.75 266.25L279.75 272L278.25 275L276.25 276.75L274 277.75L272.5 278H239.25L237 277.5L234.75 276L233 274L232.25 272.25L231 265.5L229.5 261L227.25 256.75L224.5 253.5L221.25 251L217.25 248.75L206.75 244.5L202.25 243L199 242.5H193.75L189.25 243.5L185.25 245.25L182.25 247.25L179.25 249.5L177.25 250.5L174.75 251L171.75 250.5L169 248.75L146.25 226L144.5 223.25L144 221.75V219L145 216.25L147.5 213L149.25 210.25L151 206.75L152 203.5L152.5 200.5V196.25L151.75 192L150.25 187.5L147.5 181L145.5 176.5L143.5 173L141.5 170.5L138.75 168L135 165.75L130.25 164L122.75 162.75L120.25 161.5L118.25 159.5L117.25 157.25L117 156.75L116.75 146.75V139.75L117 121.5L118 118.75L119.75 116.75L122.5 115.25L129.75 114L134.5 112.25L138 110.25L140.75 108L143.25 105.25L145.25 102L147.25 97.75L150 91L151.5 87L152.5 82V77.75L151.75 73.5L150.25 69.5L148.75 66.75L146.75 64L145 61.5L144 59V56.25L145 53.5L147.25 51L169.75 28.5L172.25 27.25L173.25 27H176L178.75 28L182 30.5L185.25 32.5L188.25 34L191.25 35L194.5 35.5H198.5L202.75 34.75L207.25 33.25L217.25 29L220.25 27.5L223.75 25L226 22.75L227.75 20.25L229 18L230.25 15L231.5 10.25L232.25 6L233.25 3.5L235 1.5L237.5 0ZM247.5 16L247 16.25L245.75 20.5L243.75 25.25L241.5 29L239.5 31.75L236.75 35L235 36.75L232.25 39L228.5 41.5L223.25 44.25L213 48.5L207.75 50.25L201.5 51.5L198 51.75H194.75L188.75 51L184 49.75L178 47.25L175.75 46L174.75 46.25L173.5 47.75L163 58.25L163.5 59.5L166 64.75L167.5 69.5L168.5 74.5L168.75 77.25V81.75L168.25 86.5L166.75 92.75L163.5 101L160.25 108.5L158.25 112L155.75 115.5L153 118.75L151 120.75L147.5 123.5L143 126.25L138.75 128.25L133.25 130V147.75L138.25 149.5L142.75 151.5L147.25 154.25L150.5 157L152.5 158.75L155.25 161.75L158.25 166L160.5 170L163 175.75L166 183.25L167.25 187L168.5 193.25L168.75 196.25V200L168.25 204.75L167.25 209.5L165.5 214.25L163.5 218.25L163 219L163.25 220L175 231.75L175.75 232L179.75 229.75L184.25 228L189.5 226.75L193.5 226.25H199.75L205.25 227L210.5 228.5L218 231.5L224 234L228.75 236.5L232.25 239L235.75 242L238 244.25L241.25 248.5L243.75 252.75L245.75 257.5L247 261.5L247.25 261.75H264.75L265.5 259.75L266.75 256L268.75 251.75L270.75 248.5L272.75 245.75L275 243.25V242.75L276 242.25L278 240.25L281.25 237.75L284.5 235.75L288.5 233.75L293.25 231.75L301.25 228.5L306.5 227L311.5 226.25H319L324 227L328.25 228.25L332.75 230L335.5 231.5L335.75 231.75H337L349 219.75L348.5 218.25L346.5 214.25L345 210.5L343.75 205.25L343.25 201.5V194.75L344.25 188.5L346.75 181L351 171L353.5 166.25L356.5 162L359.5 158.75L361.75 156.5L365 154L368.25 152L373.5 149.5L378.5 148L378.75 147.75V130L373.75 128.5L367.5 125.5L364.5 123.5L361.75 121.25L358.75 118.5L357 116.5L354.75 113.5L352 109L350.25 105.25L347 97.25L345 92L343.5 85.5L343.25 83.25V76L344 71.25L345.5 66L347.75 60.75L349 58.75L348.5 57.75L336.75 46L335.75 46.25L331.75 48.25L327 50L321.5 51.25L316.5 51.75H313.5L308.5 51.25L303.25 50L298.25 48.25L291.25 45.25L286.5 43.25L282.25 40.75L279.25 38.5L276.75 36.25L275.5 35H275L274.5 34L272.25 31.5L269.25 27L267.25 23L265.5 18.25L264.75 16H247.5Z" fill="#3EB3FF"/>
<path d="M252.75 71.25H259L264.75 71.75L270.5 72.75L276.25 74.25L281 76L286 78.25L290.25 80.5L295.5 84L299 86.75L301.5 89L303.5 90.75L306 93.25L310.5 98.75L313 102.5L315.25 106.25L317.25 110.25L319.75 116L321.5 121.75L322.75 127.5L323.5 133.5L323.75 137.5V140.75L323.25 146.5L322.5 151.75L321 158L319.5 162.5L316.75 169L313.75 174.25L310.75 178.75L305.75 185H305.25L304.75 186L302.5 188.25L299.75 190.5L297.75 192.25L294 195L287.75 198.75L282 201.5L275.75 203.75L269.5 205.25L263.25 206.25L261.25 206.5H250.5L243.25 205.5L238 204.25L230.5 201.75L223.25 198.25L218.75 195.5L215.25 193L212 190.25L210 188.5L207.5 186.25L205.25 183.75L202.5 180.5L199.5 176.25L197.5 173L195 168.5L192.75 163.25L190.75 157.25L189.25 150.75L188.5 145.5L188.25 142.25V135.75L189 128.5L190.5 121.5L193 114L195 109.5L197.5 104.75L200.25 100.5L203.25 96.5L206.5 92.75L211.25 88L214.75 85.25L219.25 82L223.5 79.5L227.5 77.5L232 75.5L238.25 73.5L243.75 72.25L249.5 71.5L252.75 71.25ZM250.75 87.75L245.75 88.5L240 90L235 92L231 94L226.5 96.75L223 99.5L219 103.25L216.25 106.25L213 110.75L210.75 114.5L208.25 119.75L206.25 125.75L205 131.75L204.75 134.25V143.75L205.5 149L207 154.75L209 160L212 165.75L215 170L217.25 172.75L220.75 176.5L223.25 178.75L227.5 181.75L232.5 184.75L237 186.75L243 188.75L247.75 189.75L251.75 190.25H260L266.75 189.25L272.25 187.75L276 186.25L281.25 183.75L286 180.75L289 178.25L291 176.5L292.5 175.25V174.75H293L294.75 172.75L298 168.75L301.25 163.5L303.5 158.75L305.75 152L307 145.5L307.25 142.75V135L306.5 129.5L305.25 124.25L303.5 119.25L301 114L298.5 110L295.5 106L292 102.25L288.5 99L284 95.75L279.5 93.25L274.75 91L270.25 89.5L266.25 88.5L261.5 87.75H250.75Z" fill="#3EB3FF"/>
<path d="M278.75 114L281.5 114.25L284 115.5L286 117.5L287.25 120.25L287.5 122.75L287 125L285.5 127.5L284.25 129H283.75L283.25 130L280.25 133L278.5 134.5L277.25 136L275.5 137.5L274.25 139L272.5 140.5L271.25 142L269.5 143.5L268.25 145L266.5 146.5L265.25 148L263.5 149.5L262.25 151L260.5 152.5L259.25 154L257.5 155.5L256.25 157L254.5 158.5L253.25 160L251.25 161.75L249 163.25L247.5 163.75H244L241.5 162.75L238.5 160L226.5 148L225 145.5L224.5 143.5V141.75L225.25 139.25L226.5 137.25L228.5 135.5L231.25 134.5H234L236.25 135.25L238.5 136.75L245.5 143.75L246.5 143.5L248.75 141L252 137.75H252.5V137.25H253V136.75H253.5V136.25H254L254.5 135.25L273.5 116.25L275.75 114.75L277 114.25L278.75 114Z" fill="#3EB3FF"/>
</g>
<defs>
<clipPath id="clip0_428_122">
<rect width="512" height="512" fill="white"/>
</clipPath>
</defs>
</svg>
