<svg width="454" height="313" viewBox="0 0 454 313" fill="none" xmlns="http://www.w3.org/2000/svg">
  <path d="M217 313L245 192C257 139.333 279 97.3333 311 66C343.667 34 391.333 12 454 -9.53674e-06L437 72.9999C404.333 78.9999 381 91 367 109C353 126.333 342.667 149.333 336 178L279 162H417L382 313H217ZM1.49012e-06 313L28 192C40 139.333 62 97.3333 94 66C126.667 34 174.333 12 237 -9.53674e-06L220 72.9999C187.333 78.9999 164 91 150 109C136 126.333 125.667 149.333 119 178L62 162H200L165 313H1.49012e-06Z" fill="#e8e8e8"/>
</svg>
