<svg width="292" height="241" viewBox="0 0 292 241" fill="none" xmlns="http://www.w3.org/2000/svg">
<path fill-rule="evenodd" clip-rule="evenodd" d="M52 123L144.5 55L239 123C239 123 233.716 140.639 229 151.5C224.016 162.979 219.02 168.69 211.047 177.803C210.704 178.195 210.355 178.594 210 179C200.076 190.356 193.361 195.861 181 204.5C167.754 213.758 144.5 222.5 144.5 222.5C144.5 222.5 122.942 213.415 110.5 204.5C98.2414 195.716 91.257 190.499 81.5 179C73.1957 169.213 69.3552 162.922 63.5 151.5C57.8595 140.497 52 123 52 123ZM115 111H140V136H115V111ZM173 111H148V136H173V111ZM115 145H140V170H115V145ZM173 145H148V170H173V145Z" fill="#3EB3FF"/>
<path d="M0 125L144.5 17L291.5 125L278 143L144.5 47L13.5 143L0 125Z" fill="#2A4B71"/>
<path fill-rule="evenodd" clip-rule="evenodd" d="M55 66.5754L2 106L8 114L55 78.8791V66.5754ZM87 42.7719V54.967L144.5 12L285.5 114L291.5 106L144.5 0L87 42.7719Z" fill="#2A4B71"/>
<path d="M40 121C45.0768 135.254 46.1413 144.012 53 157.5C60.9327 173.1 66.4829 181.769 79 194C90.121 204.867 98.1177 209.083 111.5 217C124.051 224.425 145 233.5 145 233.5C145 233.5 167.692 224.201 181 216C194.166 207.886 201.505 202.875 212.5 192C223.58 181.041 229.414 174.113 237 160.5C245.178 145.826 248.506 136.53 251.5 120" stroke="#2A4B71" stroke-width="8"/>
<rect x="60" y="25" width="22" height="61" fill="#2A4B71"/>
</svg>
