<?xml version="1.0" encoding="UTF-8"?>
<svg version="1.1" viewBox="0 0 2048 2048" width="512" height="512" xmlns="http://www.w3.org/2000/svg">
<path transform="translate(0)" d="m0 0h2048v2048h-2048zm121 120-1 11v108l6 1h1800l1-1v-119zm0 240-1 15v104l6 1h1800l1-1v-119zm0 240-1 15v104l6 1h1800l1-1v-119zm0 240-1 15v104l6 1h1800l1-1v-119zm0 240-1 15v104l6 1h1799l2-1v-119zm0 240-1 23v584l7 1h834l2-1v-607h-118l-1 41v447l-604-1-1-487zm240 0-1 33v334l6 1h356l1-1v-367zm724 0-1 40v567l6 1h835l2-1v-607h-118l-1 47v441l-604-1-1-487zm240 0-1 32v335l6 1h356l1-1v-367z"/>
</svg>
