<svg width="440" height="100" viewBox="0 0 440 100" fill="none" xmlns="http://www.w3.org/2000/svg">
<path d="M42.3916 23.4164C45.5264 13.7683 47.0938 8.94427 50 8.94427C52.9062 8.94427 54.4736 13.7683 57.6085 23.4164L59.4296 29.0213C60.296 31.688 60.7293 33.0213 61.7807 33.7852C62.8322 34.5491 64.2341 34.5491 67.038 34.5491H72.9314C83.076 34.5491 88.1483 34.5491 89.0463 37.3131C89.9444 40.077 85.8408 43.0584 77.6336 49.0213L72.8658 52.4853C70.5974 54.1334 69.4632 54.9574 69.0616 56.1935C68.66 57.4296 69.0932 58.7629 69.9597 61.4296L71.7808 67.0344C74.9157 76.6825 76.4831 81.5066 74.132 83.2148C71.7808 84.923 67.6772 81.9416 59.4701 75.9787L54.7023 72.5147C52.4339 70.8666 51.2997 70.0426 50 70.0426C48.7003 70.0426 47.5661 70.8666 45.2977 72.5147L40.5299 75.9787C32.3228 81.9416 28.2192 84.923 25.868 83.2148C23.5169 81.5066 25.0843 76.6825 28.2192 67.0344L30.0403 61.4296C30.9068 58.7629 31.34 57.4296 30.9384 56.1935C30.5368 54.9574 29.4026 54.1334 27.1342 52.4853L22.3663 49.0213C14.1592 43.0584 10.0556 40.077 10.9537 37.3131C11.8517 34.5491 16.924 34.5491 27.0686 34.5491H32.962C35.7659 34.5491 37.1678 34.5491 38.2193 33.7852C39.2707 33.0213 39.704 31.688 40.5704 29.0213L42.3916 23.4164Z" fill="#FFDD55"/>
<path d="M127.392 23.4164C130.526 13.7683 132.094 8.94427 135 8.94427C137.906 8.94427 139.474 13.7683 142.608 23.4164L144.43 29.0213C145.296 31.688 145.729 33.0213 146.781 33.7852C147.832 34.5491 149.234 34.5491 152.038 34.5491H157.931C168.076 34.5491 173.148 34.5491 174.046 37.3131C174.944 40.077 170.841 43.0584 162.634 49.0213L157.866 52.4853C155.597 54.1334 154.463 54.9574 154.062 56.1935C153.66 57.4296 154.093 58.7629 154.96 61.4296L156.781 67.0344C159.916 76.6825 161.483 81.5066 159.132 83.2148C156.781 84.923 152.677 81.9416 144.47 75.9787L139.702 72.5147C137.434 70.8666 136.3 70.0426 135 70.0426C133.7 70.0426 132.566 70.8666 130.298 72.5147L125.53 75.9787C117.323 81.9416 113.219 84.923 110.868 83.2148C108.517 81.5066 110.084 76.6825 113.219 67.0344L115.04 61.4296C115.907 58.7629 116.34 57.4296 115.938 56.1935C115.537 54.9574 114.403 54.1334 112.134 52.4853L107.366 49.0213C99.1592 43.0584 95.0556 40.077 95.9537 37.3131C96.8517 34.5491 101.924 34.5491 112.069 34.5491H117.962C120.766 34.5491 122.168 34.5491 123.219 33.7852C124.271 33.0213 124.704 31.688 125.57 29.0213L127.392 23.4164Z" fill="#FFDD55"/>
<path d="M212.392 23.4164C215.526 13.7683 217.094 8.94427 220 8.94427C222.906 8.94427 224.474 13.7683 227.608 23.4164L229.43 29.0213C230.296 31.688 230.729 33.0213 231.781 33.7852C232.832 34.5491 234.234 34.5491 237.038 34.5491H242.931C253.076 34.5491 258.148 34.5491 259.046 37.3131C259.944 40.077 255.841 43.0584 247.634 49.0213L242.866 52.4853C240.597 54.1334 239.463 54.9574 239.062 56.1935C238.66 57.4296 239.093 58.7629 239.96 61.4296L241.781 67.0344C244.916 76.6825 246.483 81.5066 244.132 83.2148C241.781 84.923 237.677 81.9416 229.47 75.9787L224.702 72.5147C222.434 70.8666 221.3 70.0426 220 70.0426C218.7 70.0426 217.566 70.8666 215.298 72.5147L210.53 75.9787C202.323 81.9416 198.219 84.923 195.868 83.2148C193.517 81.5066 195.084 76.6825 198.219 67.0344L200.04 61.4296C200.907 58.7629 201.34 57.4296 200.938 56.1935C200.537 54.9574 199.403 54.1334 197.134 52.4853L192.366 49.0213C184.159 43.0584 180.056 40.077 180.954 37.3131C181.852 34.5491 186.924 34.5491 197.069 34.5491H202.962C205.766 34.5491 207.168 34.5491 208.219 33.7852C209.271 33.0213 209.704 31.688 210.57 29.0213L212.392 23.4164Z" fill="#FFDD55"/>
<path d="M297.392 23.4164C300.526 13.7683 302.094 8.94427 305 8.94427C307.906 8.94427 309.474 13.7683 312.608 23.4164L314.43 29.0213C315.296 31.688 315.729 33.0213 316.781 33.7852C317.832 34.5491 319.234 34.5491 322.038 34.5491H327.931C338.076 34.5491 343.148 34.5491 344.046 37.3131C344.944 40.077 340.841 43.0584 332.634 49.0213L327.866 52.4853C325.597 54.1334 324.463 54.9574 324.062 56.1935C323.66 57.4296 324.093 58.7629 324.96 61.4296L326.781 67.0344C329.916 76.6825 331.483 81.5066 329.132 83.2148C326.781 84.923 322.677 81.9416 314.47 75.9787L309.702 72.5147C307.434 70.8666 306.3 70.0426 305 70.0426C303.7 70.0426 302.566 70.8666 300.298 72.5147L295.53 75.9787C287.323 81.9416 283.219 84.923 280.868 83.2148C278.517 81.5066 280.084 76.6825 283.219 67.0344L285.04 61.4296C285.907 58.7629 286.34 57.4296 285.938 56.1935C285.537 54.9574 284.403 54.1334 282.134 52.4853L277.366 49.0213C269.159 43.0584 265.056 40.077 265.954 37.3131C266.852 34.5491 271.924 34.5491 282.069 34.5491H287.962C290.766 34.5491 292.168 34.5491 293.219 33.7852C294.271 33.0213 294.704 31.688 295.57 29.0213L297.392 23.4164Z" fill="#FFDD55"/>
<path d="M382.392 23.4164C385.526 13.7683 387.094 8.94427 390 8.94427C392.906 8.94427 394.474 13.7683 397.608 23.4164L399.43 29.0213C400.296 31.688 400.729 33.0213 401.781 33.7852C402.832 34.5491 404.234 34.5491 407.038 34.5491H412.931C423.076 34.5491 428.148 34.5491 429.046 37.3131C429.944 40.077 425.841 43.0584 417.634 49.0213L412.866 52.4853C410.597 54.1334 409.463 54.9574 409.062 56.1935C408.66 57.4296 409.093 58.7629 409.96 61.4296L411.781 67.0344C414.916 76.6825 416.483 81.5066 414.132 83.2148C411.781 84.923 407.677 81.9416 399.47 75.9787L394.702 72.5147C392.434 70.8666 391.3 70.0426 390 70.0426C388.7 70.0426 387.566 70.8666 385.298 72.5147L380.53 75.9787C372.323 81.9416 368.219 84.923 365.868 83.2148C363.517 81.5066 365.084 76.6825 368.219 67.0344L370.04 61.4296C370.907 58.7629 371.34 57.4296 370.938 56.1935C370.537 54.9574 369.403 54.1334 367.134 52.4853L362.366 49.0213C354.159 43.0584 350.056 40.077 350.954 37.3131C351.852 34.5491 356.924 34.5491 367.069 34.5491H372.962C375.766 34.5491 377.168 34.5491 378.219 33.7852C379.271 33.0213 379.704 31.688 380.57 29.0213L382.392 23.4164Z" fill="#FFDD55"/>
</svg>
